<svg version="1.1" viewBox="0.0 0.0 958.501312335958 257.13123359580055" fill="none" stroke="none" stroke-linecap="square" stroke-miterlimit="10" xmlns:xlink="http://www.w3.org/1999/xlink" xmlns="http://www.w3.org/2000/svg"><clipPath id="p.0"><path d="m0 0l958.50134 0l0 257.13123l-958.50134 0l0 -257.13123z" clip-rule="nonzero"/></clipPath><g clip-path="url(#p.0)"><path fill="#000000" fill-opacity="0.0" d="m0 0l958.50134 0l0 257.13123l-958.50134 0z" fill-rule="evenodd"/><path fill="#858585" d="m295.41483 45.81083l0 0c0 -1.2350311 1.0011902 -2.2362213 2.2362366 -2.2362213l37.763763 0c0.5930786 0 1.1618652 0.23559952 1.5812378 0.6549721c0.41937256 0.41937256 0.6549988 0.9881668 0.6549988 1.5812492l0 0l0 0c0 1.2350311 -1.0011902 2.2362213 -2.2362366 2.2362213l-37.763763 0c-1.2350464 0 -2.2362366 -1.0011902 -2.2362366 -2.2362213z" fill-rule="evenodd"/><path fill="#000000" fill-opacity="0.0" d="m201.94327 42.724266l0 0c0 -20.64961 15.841721 -37.389427 35.38347 -37.389427l0 0c9.384277 0 18.384201 3.9392319 25.019882 10.95111c6.6357117 7.011877 10.363586 16.522022 10.363586 26.438316l0 0c0 20.649609 -15.841705 37.389427 -35.38347 37.389427l0 0c-19.541748 0 -35.38347 -16.739819 -35.38347 -37.389427z" fill-rule="evenodd"/><path stroke="#858585" stroke-width="4.0" stroke-linejoin="round" stroke-linecap="butt" d="m201.94327 42.724266l0 0c0 -20.64961 15.841721 -37.389427 35.38347 -37.389427l0 0c9.384277 0 18.384201 3.9392319 25.019882 10.95111c6.6357117 7.011877 10.363586 16.522022 10.363586 26.438316l0 0c0 20.649609 -15.841705 37.389427 -35.38347 37.389427l0 0c-19.541748 0 -35.38347 -16.739819 -35.38347 -37.389427z" fill-rule="evenodd"/><path fill="#000000" fill-opacity="0.0" d="m159.30583 93.88857l156.03734 0l0 56.169075l-156.03734 0z" fill-rule="evenodd"/><path fill="#858585" d="m196.78548 132.5139l0 3.34375l-1.953125 0l0 -9.468758l3.703125 0q1.0625 0 1.875 0.390625q0.8125 0.390625 1.25 1.109375q0.4375 0.7187576 0.4375 1.6250076q0 1.390625 -0.953125 2.203125q-0.953125 0.796875 -2.640625 0.796875l-1.71875 0zm0 -1.578125l1.75 0q0.765625 0 1.171875 -0.359375q0.40625 -0.375 0.40625 -1.046875q0 -0.6875 -0.40625 -1.109375q-0.40625 -0.43750763 -1.125 -0.45313263l-1.796875 0l0 2.9687576zm10.471909 -0.359375q-0.375 -0.046875 -0.671875 -0.046875q-1.0625 0 -1.390625 0.71875l0 4.609375l-1.890625 0l0 -7.046875l1.78125 0l0.046875 0.84375q0.578125 -0.96875 1.578125 -0.96875q0.3125 0 0.578125 0.078125l-0.03125 1.8125zm4.034561 5.40625q-1.546875 0 -2.53125 -0.9375q-0.96875 -0.953125 -0.96875 -2.53125l0 -0.1875q0 -1.0625 0.40625 -1.890625q0.40625 -0.84375 1.15625 -1.296875q0.765625 -0.453125 1.71875 -0.453125q1.453125 0 2.28125 0.921875q0.828125 0.90625 0.828125 2.578125l0 0.765625l-4.484375 0q0.09375 0.6875 0.546875 1.109375q0.46875 0.40625 1.171875 0.40625q1.078125 0 1.6875 -0.78125l0.921875 1.03125q-0.421875 0.59375 -1.140625 0.9375q-0.71875 0.328125 -1.59375 0.328125zm-0.21875 -5.78125q-0.5625 0 -0.90625 0.390625q-0.34375 0.375 -0.453125 1.078125l2.625 0l0 -0.15625q-0.015625 -0.625 -0.34375 -0.96875q-0.328125 -0.34375 -0.921875 -0.34375zm10.516724 2.203125q0 1.625 -0.75 2.609375q-0.734375 0.96875 -1.984375 0.96875q-1.0625 0 -1.71875 -0.734375l0 3.3125l-1.890625 0l0 -9.75l1.75 0l0.0625 0.6875q0.6875 -0.8125 1.78125 -0.8125q1.296875 0 2.015625 0.96875q0.734375 0.953125 0.734375 2.65625l0 0.09375zm-1.875 -0.140625q0 -0.984375 -0.359375 -1.515625q-0.34375 -0.53125 -1.015625 -0.53125q-0.875 0 -1.203125 0.671875l0 2.890625q0.34375 0.6875 1.21875 0.6875q1.359375 0 1.359375 -2.203125zm6.987961 -1.6875q-0.375 -0.046875 -0.671875 -0.046875q-1.0625 0 -1.390625 0.71875l0 4.609375l-1.890625 0l0 -7.046875l1.78125 0l0.046875 0.84375q0.578125 -0.96875 1.578125 -0.96875q0.3125 0 0.578125 0.078125l-0.03125 1.8125zm0.37701416 1.703125q0 -1.0625 0.40625 -1.875q0.40625 -0.828125 1.15625 -1.265625q0.765625 -0.453125 1.765625 -0.453125q1.4375 0 2.328125 0.875q0.90625 0.875 1.015625 2.359375l0 0.484375q0 1.625 -0.90625 2.609375q-0.890625 0.96875 -2.421875 0.96875q-1.515625 0 -2.4375 -0.96875q-0.90625 -0.984375 -0.90625 -2.65625l0 -0.078125zm1.890625 0.125q0 1.0 0.375 1.53125q0.375 0.53125 1.078125 0.53125q0.6875 0 1.0625 -0.515625q0.390625 -0.53125 0.390625 -1.671875q0 -0.984375 -0.390625 -1.53125q-0.375 -0.546875 -1.078125 -0.546875q-0.6875 0 -1.0625 0.546875q-0.375 0.53125 -0.375 1.65625zm8.879868 2.0625q0.515625 0 0.84375 -0.28125q0.328125 -0.28125 0.328125 -0.765625l1.765625 0q0 0.71875 -0.390625 1.3125q-0.375 0.59375 -1.046875 0.921875q-0.671875 0.328125 -1.46875 0.328125q-1.515625 0 -2.390625 -0.953125q-0.875 -0.96875 -0.875 -2.65625l0 -0.125q0 -1.625 0.859375 -2.59375q0.875 -0.96875 2.390625 -0.96875q1.3125 0 2.109375 0.75q0.8125 0.75 0.8125 2.0l-1.765625 0q0 -0.546875 -0.328125 -0.890625q-0.328125 -0.34375 -0.859375 -0.34375q-0.65625 0 -1.0 0.484375q-0.328125 0.484375 -0.328125 1.546875l0 0.203125q0 1.078125 0.328125 1.5625q0.328125 0.46875 1.015625 0.46875zm7.262909 1.515625q-1.546875 0 -2.53125 -0.9375q-0.96875 -0.953125 -0.96875 -2.53125l0 -0.1875q0 -1.0625 0.40625 -1.890625q0.40625 -0.84375 1.15625 -1.296875q0.765625 -0.453125 1.71875 -0.453125q1.453125 0 2.28125 0.921875q0.828125 0.90625 0.828125 2.578125l0 0.765625l-4.484375 0q0.09375 0.6875 0.546875 1.109375q0.46875 0.40625 1.171875 0.40625q1.078125 0 1.6875 -0.78125l0.921875 1.03125q-0.421875 0.59375 -1.140625 0.9375q-0.71875 0.328125 -1.59375 0.328125zm-0.21875 -5.78125q-0.5625 0 -0.90625 0.390625q-0.34375 0.375 -0.453125 1.078125l2.625 0l0 -0.15625q-0.015625 -0.625 -0.34375 -0.96875q-0.328125 -0.34375 -0.921875 -0.34375zm7.9854736 3.703125q0 -0.34375 -0.34375 -0.53125q-0.328125 -0.203125 -1.09375 -0.359375q-2.515625 -0.53125 -2.515625 -2.140625q0 -0.9375 0.78125 -1.5625q0.78125 -0.625 2.03125 -0.625q1.34375 0 2.140625 0.640625q0.8125 0.625 0.8125 1.625l-1.875 0q0 -0.390625 -0.265625 -0.65625q-0.265625 -0.265625 -0.8125 -0.265625q-0.46875 0 -0.734375 0.21875q-0.265625 0.203125 -0.265625 0.546875q0 0.3125 0.296875 0.5q0.296875 0.1875 1.0 0.328125q0.703125 0.140625 1.1875 0.3125q1.484375 0.546875 1.484375 1.890625q0 0.96875 -0.828125 1.5625q-0.8125 0.59375 -2.125 0.59375q-0.890625 0 -1.578125 -0.3125q-0.6875 -0.3125 -1.078125 -0.859375q-0.390625 -0.546875 -0.390625 -1.1875l1.78125 0q0.03125 0.5 0.375 0.765625q0.34375 0.265625 0.921875 0.265625q0.546875 0 0.8125 -0.203125q0.28125 -0.203125 0.28125 -0.546875zm6.8527985 0q0 -0.34375 -0.34375 -0.53125q-0.328125 -0.203125 -1.09375 -0.359375q-2.515625 -0.53125 -2.515625 -2.140625q0 -0.9375 0.78125 -1.5625q0.78125 -0.625 2.03125 -0.625q1.34375 0 2.140625 0.640625q0.8125 0.625 0.8125 1.625l-1.875 0q0 -0.390625 -0.265625 -0.65625q-0.265625 -0.265625 -0.8125 -0.265625q-0.46875 0 -0.734375 0.21875q-0.265625 0.203125 -0.265625 0.546875q0 0.3125 0.296875 0.5q0.296875 0.1875 1.0 0.328125q0.703125 0.140625 1.1875 0.3125q1.484375 0.546875 1.484375 1.890625q0 0.96875 -0.828125 1.5625q-0.8125 0.59375 -2.125 0.59375q-0.890625 0 -1.578125 -0.3125q-0.6875 -0.3125 -1.078125 -0.859375q-0.390625 -0.546875 -0.390625 -1.1875l1.78125 0q0.03125 0.5 0.375 0.765625q0.34375 0.265625 0.921875 0.265625q0.546875 0 0.8125 -0.203125q0.28125 -0.203125 0.28125 -0.546875zm5.0246887 1.953125l-1.890625 0l0 -7.046875l1.890625 0l0 7.046875zm-2.0 -8.859383q0 -0.421875 0.28125 -0.6875q0.296875 -0.28125 0.78125 -0.28125q0.484375 0 0.765625 0.28125q0.28125 0.265625 0.28125 0.6875q0 0.421875 -0.296875 0.703125q-0.28125 0.265625 -0.765625 0.265625q-0.46875 0 -0.765625 -0.265625q-0.28125 -0.28125 -0.28125 -0.703125zm5.283783 1.8125076l0.0625 0.8125q0.75 -0.9375 2.015625 -0.9375q1.125 0 1.671875 0.65625q0.546875 0.65625 0.5625 1.96875l0 4.546875l-1.890625 0l0 -4.5q0 -0.609375 -0.265625 -0.875q-0.25 -0.265625 -0.859375 -0.265625q-0.78125 0 -1.1875 0.671875l0 4.96875l-1.875 0l0 -7.046875l1.765625 0zm5.4645386 3.46875q0 -1.609375 0.765625 -2.59375q0.765625 -1.0 2.078125 -1.0q1.15625 0 1.8125 0.796875l0.078125 -0.671875l1.703125 0l0 6.8125q0 0.921875 -0.421875 1.609375q-0.421875 0.6875 -1.1875 1.03125q-0.765625 0.359375 -1.78125 0.359375q-0.765625 0 -1.515625 -0.3125q-0.734375 -0.296875 -1.109375 -0.78125l0.84375 -1.15625q0.703125 0.796875 1.703125 0.796875q0.75 0 1.15625 -0.40625q0.421875 -0.40625 0.421875 -1.140625l0 -0.375q-0.65625 0.734375 -1.71875 0.734375q-1.265625 0 -2.046875 -0.984375q-0.78125 -1.0 -0.78125 -2.640625l0 -0.078125zm1.875 0.140625q0 0.953125 0.375 1.5q0.390625 0.546875 1.0625 0.546875q0.859375 0 1.234375 -0.640625l0 -2.96875q-0.375 -0.640625 -1.21875 -0.640625q-0.671875 0 -1.0625 0.5625q-0.390625 0.546875 -0.390625 1.640625z" fill-rule="nonzero"/><path fill="#000000" fill-opacity="0.0" d="m521.4102 42.724266l0 0c0 -20.64961 15.841675 -37.389427 35.383423 -37.389427l0 0c9.384277 0 18.384216 3.9392319 25.019897 10.95111c6.635681 7.011877 10.363586 16.522022 10.363586 26.438316l0 0c0 20.649609 -15.841736 37.389427 -35.383484 37.389427l0 0c-19.541748 0 -35.383423 -16.739819 -35.383423 -37.389427z" fill-rule="evenodd"/><path stroke="#858585" stroke-width="4.0" stroke-linejoin="round" stroke-linecap="butt" d="m521.4102 42.724266l0 0c0 -20.64961 15.841675 -37.389427 35.383423 -37.389427l0 0c9.384277 0 18.384216 3.9392319 25.019897 10.95111c6.635681 7.011877 10.363586 16.522022 10.363586 26.438316l0 0c0 20.649609 -15.841736 37.389427 -35.383484 37.389427l0 0c-19.541748 0 -35.383423 -16.739819 -35.383423 -37.389427z" fill-rule="evenodd"/><path fill="#000000" fill-opacity="0.0" d="m475.8288 93.88857l161.93158 0l0 56.169075l-161.93158 0z" fill-rule="evenodd"/><path fill="#858585" d="m553.52094 135.85765l-1.953125 0l0 -9.468758l1.953125 0l0 9.468758zm5.322754 -3.46875l-1.5625 0l0 3.46875l-1.953125 0l0 -9.468758l3.515625 0q1.6875 0 2.59375 0.75q0.921875 0.734375 0.921875 2.1093826q0 0.96875 -0.421875 1.625q-0.421875 0.640625 -1.28125 1.015625l2.046875 3.875l0 0.09375l-2.09375 0l-1.765625 -3.46875zm-1.5625 -1.578125l1.578125 0q0.734375 0 1.140625 -0.375q0.40625 -0.375 0.40625 -1.03125q0 -0.671875 -0.390625 -1.046875q-0.375 -0.39063263 -1.171875 -0.39063263l-1.5625 0l0 2.8437576z" fill-rule="nonzero"/><path fill="#000000" fill-opacity="0.0" d="m682.7436 42.724266l0 0c0 -20.64961 15.841736 -37.389427 35.383484 -37.389427l0 0c9.384277 0 18.384155 3.9392319 25.019836 10.95111c6.635742 7.011877 10.363586 16.522022 10.363586 26.438316l0 0c0 20.649609 -15.841675 37.389427 -35.383423 37.389427l0 0c-19.541748 0 -35.383484 -16.739819 -35.383484 -37.389427z" fill-rule="evenodd"/><path stroke="#858585" stroke-width="4.0" stroke-linejoin="round" stroke-linecap="butt" d="m682.7436 42.724266l0 0c0 -20.64961 15.841736 -37.389427 35.383484 -37.389427l0 0c9.384277 0 18.384155 3.9392319 25.019836 10.95111c6.635742 7.011877 10.363586 16.522022 10.363586 26.438316l0 0c0 20.649609 -15.841675 37.389427 -35.383423 37.389427l0 0c-19.541748 0 -35.383484 -16.739819 -35.383484 -37.389427z" fill-rule="evenodd"/><path fill="#000000" fill-opacity="0.0" d="m640.1081 93.88857l156.0373 0l0 56.169075l-156.0373 0z" fill-rule="evenodd"/><path fill="#858585" d="m692.0703 133.90453l-3.4375 0l-0.640625 1.953125l-2.078125 0l3.53125 -9.468758l1.796875 0l3.546875 9.468758l-2.0625 0l-0.65625 -1.953125zm-2.90625 -1.578125l2.375 0l-1.1875 -3.546875l-1.1875 3.546875zm10.202209 1.578125q0 -0.34375 -0.34375 -0.53125q-0.328125 -0.203125 -1.09375 -0.359375q-2.515625 -0.53125 -2.515625 -2.140625q0 -0.9375 0.78125 -1.5625q0.78125 -0.625 2.03125 -0.625q1.34375 0 2.140625 0.640625q0.8125 0.625 0.8125 1.625l-1.875 0q0 -0.390625 -0.265625 -0.65625q-0.265625 -0.265625 -0.8125 -0.265625q-0.46875 0 -0.734375 0.21875q-0.265625 0.203125 -0.265625 0.546875q0 0.3125 0.296875 0.5q0.296875 0.1875 1.0 0.328125q0.703125 0.140625 1.1875 0.3125q1.484375 0.546875 1.484375 1.890625q0 0.96875 -0.828125 1.5625q-0.8125 0.59375 -2.125 0.59375q-0.890625 0 -1.578125 -0.3125q-0.6875 -0.3125 -1.078125 -0.859375q-0.390625 -0.546875 -0.390625 -1.1875l1.78125 0q0.03125 0.5 0.375 0.765625q0.34375 0.265625 0.921875 0.265625q0.546875 0 0.8125 -0.203125q0.28125 -0.203125 0.28125 -0.546875zm6.852783 0q0 -0.34375 -0.34375 -0.53125q-0.328125 -0.203125 -1.09375 -0.359375q-2.515625 -0.53125 -2.515625 -2.140625q0 -0.9375 0.78125 -1.5625q0.78125 -0.625 2.03125 -0.625q1.34375 0 2.140625 0.640625q0.8125 0.625 0.8125 1.625l-1.875 0q0 -0.390625 -0.265625 -0.65625q-0.265625 -0.265625 -0.8125 -0.265625q-0.46875 0 -0.734375 0.21875q-0.265625 0.203125 -0.265625 0.546875q0 0.3125 0.296875 0.5q0.296875 0.1875 1.0 0.328125q0.703125 0.140625 1.1875 0.3125q1.484375 0.546875 1.484375 1.890625q0 0.96875 -0.828125 1.5625q-0.8125 0.59375 -2.125 0.59375q-0.890625 0 -1.578125 -0.3125q-0.6875 -0.3125 -1.078125 -0.859375q-0.390625 -0.546875 -0.390625 -1.1875l1.78125 0q0.03125 0.5 0.375 0.765625q0.34375 0.265625 0.921875 0.265625q0.546875 0 0.8125 -0.203125q0.28125 -0.203125 0.28125 -0.546875zm6.290344 2.078125q-1.546875 0 -2.53125 -0.9375q-0.96875 -0.953125 -0.96875 -2.53125l0 -0.1875q0 -1.0625 0.40625 -1.890625q0.40625 -0.84375 1.15625 -1.296875q0.765625 -0.453125 1.71875 -0.453125q1.453125 0 2.28125 0.921875q0.828125 0.90625 0.828125 2.578125l0 0.765625l-4.484375 0q0.09375 0.6875 0.546875 1.109375q0.46875 0.40625 1.171875 0.40625q1.078125 0 1.6875 -0.78125l0.921875 1.03125q-0.421875 0.59375 -1.140625 0.9375q-0.71875 0.328125 -1.59375 0.328125zm-0.21875 -5.78125q-0.5625 0 -0.90625 0.390625q-0.34375 0.375 -0.453125 1.078125l2.625 0l0 -0.15625q-0.015625 -0.625 -0.34375 -0.96875q-0.328125 -0.34375 -0.921875 -0.34375zm5.9385986 -1.390625l0.0625 0.796875q0.75 -0.921875 2.015625 -0.921875q1.359375 0 1.875 1.078125q0.734375 -1.078125 2.109375 -1.078125q1.15625 0 1.703125 0.671875q0.5625 0.65625 0.5625 2.0l0 4.5l-1.890625 0l0 -4.484375q0 -0.609375 -0.234375 -0.875q-0.234375 -0.28125 -0.8125 -0.28125q-0.859375 0 -1.171875 0.8125l0 4.828125l-1.875 0l0 -4.484375q0 -0.609375 -0.25 -0.875q-0.234375 -0.28125 -0.8125 -0.28125q-0.796875 0 -1.15625 0.65625l0 4.984375l-1.890625 0l0 -7.046875l1.765625 0zm16.116577 3.59375q0 1.6875 -0.71875 2.640625q-0.71875 0.9375 -2.015625 0.9375q-1.140625 0 -1.828125 -0.875l-0.078125 0.75l-1.703125 0l0 -10.000008l1.890625 0l0 3.5937576q0.640625 -0.765625 1.703125 -0.765625q1.296875 0 2.015625 0.953125q0.734375 0.9375 0.734375 2.65625l0 0.109375zm-1.875 -0.140625q0 -1.0625 -0.34375 -1.546875q-0.328125 -0.5 -1.0 -0.5q-0.90625 0 -1.234375 0.734375l0 2.78125q0.34375 0.734375 1.25 0.734375q0.90625 0 1.1875 -0.890625q0.140625 -0.4375 0.140625 -1.3125zm5.019226 3.59375l-1.890625 0l0 -10.000008l1.890625 0l0 10.000008zm4.7993774 0.125q-1.546875 0 -2.53125 -0.9375q-0.96875 -0.953125 -0.96875 -2.53125l0 -0.1875q0 -1.0625 0.40625 -1.890625q0.40625 -0.84375 1.15625 -1.296875q0.765625 -0.453125 1.71875 -0.453125q1.453125 0 2.28125 0.921875q0.828125 0.90625 0.828125 2.578125l0 0.765625l-4.484375 0q0.09375 0.6875 0.546875 1.109375q0.46875 0.40625 1.171875 0.40625q1.078125 0 1.6875 -0.78125l0.921875 1.03125q-0.421875 0.59375 -1.140625 0.9375q-0.71875 0.328125 -1.59375 0.328125zm-0.21875 -5.78125q-0.5625 0 -0.90625 0.390625q-0.34375 0.375 -0.453125 1.078125l2.625 0l0 -0.15625q-0.015625 -0.625 -0.34375 -0.96875q-0.328125 -0.34375 -0.921875 -0.34375zm8.126099 0.375q-0.375 -0.046875 -0.671875 -0.046875q-1.0625 0 -1.390625 0.71875l0 4.609375l-1.890625 0l0 -7.046875l1.78125 0l0.046875 0.84375q0.578125 -0.96875 1.578125 -0.96875q0.3125 0 0.578125 0.078125l-0.03125 1.8125z" fill-rule="nonzero"/><path fill="#000000" fill-opacity="0.0" d="m360.20062 42.724266l0 0c0 -20.64961 15.841705 -37.389427 35.383453 -37.389427l0 0c9.384277 0 18.384216 3.9392319 25.019897 10.95111c6.635681 7.011877 10.363586 16.522022 10.363586 26.438316l0 0c0 20.649609 -15.841736 37.389427 -35.383484 37.389427l0 0c-19.541748 0 -35.383453 -16.739819 -35.383453 -37.389427z" fill-rule="evenodd"/><path stroke="#858585" stroke-width="4.0" stroke-linejoin="round" stroke-linecap="butt" d="m360.20062 42.724266l0 0c0 -20.64961 15.841705 -37.389427 35.383453 -37.389427l0 0c9.384277 0 18.384216 3.9392319 25.019897 10.95111c6.635681 7.011877 10.363586 16.522022 10.363586 26.438316l0 0c0 20.649609 -15.841736 37.389427 -35.383484 37.389427l0 0c-19.541748 0 -35.383453 -16.739819 -35.383453 -37.389427z" fill-rule="evenodd"/><path fill="#000000" fill-opacity="0.0" d="m317.56543 93.88857l156.03732 0l0 56.169075l-156.03732 0z" fill-rule="evenodd"/><path fill="#858585" d="m375.38538 132.5139l0 3.34375l-1.953125 0l0 -9.468758l3.703125 0q1.0625 0 1.875 0.390625q0.8125 0.390625 1.25 1.109375q0.4375 0.7187576 0.4375 1.6250076q0 1.390625 -0.953125 2.203125q-0.953125 0.796875 -2.640625 0.796875l-1.71875 0zm0 -1.578125l1.75 0q0.765625 0 1.171875 -0.359375q0.40625 -0.375 0.40625 -1.046875q0 -0.6875 -0.40625 -1.109375q-0.40625 -0.43750763 -1.125 -0.45313263l-1.796875 0l0 2.9687576zm10.525299 4.921875q-0.125 -0.25 -0.1875 -0.625q-0.671875 0.75 -1.765625 0.75q-1.046875 0 -1.734375 -0.59375q-0.671875 -0.59375 -0.671875 -1.515625q0 -1.109375 0.828125 -1.703125q0.84375 -0.609375 2.40625 -0.609375l0.859375 0l0 -0.40625q0 -0.484375 -0.25 -0.78125q-0.25 -0.296875 -0.78125 -0.296875q-0.484375 0 -0.75 0.234375q-0.265625 0.21875 -0.265625 0.625l-1.890625 0q0 -0.609375 0.375 -1.125q0.390625 -0.53125 1.078125 -0.828125q0.6875 -0.296875 1.546875 -0.296875q1.296875 0 2.0625 0.65625q0.765625 0.65625 0.765625 1.84375l0 3.046875q0.015625 1.0 0.28125 1.515625l0 0.109375l-1.90625 0zm-1.546875 -1.3125q0.40625 0 0.75 -0.171875q0.359375 -0.1875 0.53125 -0.5l0 -1.21875l-0.703125 0q-1.40625 0 -1.5 0.984375l0 0.109375q0 0.34375 0.234375 0.578125q0.25 0.21875 0.6875 0.21875zm8.567535 -3.96875q-0.375 -0.046875 -0.671875 -0.046875q-1.0625 0 -1.390625 0.71875l0 4.609375l-1.890625 0l0 -7.046875l1.78125 0l0.046875 0.84375q0.578125 -0.96875 1.578125 -0.96875q0.3125 0 0.578125 0.078125l-0.03125 1.8125zm4.720764 3.328125q0 -0.34375 -0.34375 -0.53125q-0.328125 -0.203125 -1.09375 -0.359375q-2.515625 -0.53125 -2.515625 -2.140625q0 -0.9375 0.78125 -1.5625q0.78125 -0.625 2.03125 -0.625q1.34375 0 2.140625 0.640625q0.8125 0.625 0.8125 1.625l-1.875 0q0 -0.390625 -0.265625 -0.65625q-0.265625 -0.265625 -0.8125 -0.265625q-0.46875 0 -0.734375 0.21875q-0.265625 0.203125 -0.265625 0.546875q0 0.3125 0.296875 0.5q0.296875 0.1875 1.0 0.328125q0.703125 0.140625 1.1875 0.3125q1.484375 0.546875 1.484375 1.890625q0 0.96875 -0.828125 1.5625q-0.8125 0.59375 -2.125 0.59375q-0.890625 0 -1.578125 -0.3125q-0.6875 -0.3125 -1.078125 -0.859375q-0.390625 -0.546875 -0.390625 -1.1875l1.78125 0q0.03125 0.5 0.375 0.765625q0.34375 0.265625 0.921875 0.265625q0.546875 0 0.8125 -0.203125q0.28125 -0.203125 0.28125 -0.546875zm5.024658 1.953125l-1.890625 0l0 -7.046875l1.890625 0l0 7.046875zm-2.0 -8.859383q0 -0.421875 0.28125 -0.6875q0.296875 -0.28125 0.78125 -0.28125q0.484375 0 0.765625 0.28125q0.28125 0.265625 0.28125 0.6875q0 0.421875 -0.296875 0.703125q-0.28125 0.265625 -0.765625 0.265625q-0.46875 0 -0.765625 -0.265625q-0.28125 -0.28125 -0.28125 -0.703125zm5.283783 1.8125076l0.0625 0.8125q0.75 -0.9375 2.015625 -0.9375q1.125 0 1.671875 0.65625q0.546875 0.65625 0.5625 1.96875l0 4.546875l-1.890625 0l0 -4.5q0 -0.609375 -0.265625 -0.875q-0.25 -0.265625 -0.859375 -0.265625q-0.78125 0 -1.1875 0.671875l0 4.96875l-1.875 0l0 -7.046875l1.765625 0zm5.4645386 3.46875q0 -1.609375 0.765625 -2.59375q0.765625 -1.0 2.078125 -1.0q1.15625 0 1.8125 0.796875l0.078125 -0.671875l1.703125 0l0 6.8125q0 0.921875 -0.421875 1.609375q-0.421875 0.6875 -1.1875 1.03125q-0.765625 0.359375 -1.78125 0.359375q-0.765625 0 -1.515625 -0.3125q-0.734375 -0.296875 -1.109375 -0.78125l0.84375 -1.15625q0.703125 0.796875 1.703125 0.796875q0.75 0 1.15625 -0.40625q0.421875 -0.40625 0.421875 -1.140625l0 -0.375q-0.65625 0.734375 -1.71875 0.734375q-1.265625 0 -2.046875 -0.984375q-0.78125 -1.0 -0.78125 -2.640625l0 -0.078125zm1.875 0.140625q0 0.953125 0.375 1.5q0.390625 0.546875 1.0625 0.546875q0.859375 0 1.234375 -0.640625l0 -2.96875q-0.375 -0.640625 -1.21875 -0.640625q-0.671875 0 -1.0625 0.5625q-0.390625 0.546875 -0.390625 1.640625z" fill-rule="nonzero"/><path fill="#858585" d="m455.148 45.81083l0 0c0 -1.2350311 1.0011902 -2.2362213 2.236206 -2.2362213l37.763794 0c0.5930786 0 1.1618652 0.23559952 1.5812378 0.6549721c0.41937256 0.41937256 0.65496826 0.9881668 0.65496826 1.5812492l0 0l0 0c0 1.2350311 -1.0011902 2.2362213 -2.236206 2.2362213l-37.763794 0c-1.2350159 0 -2.236206 -1.0011902 -2.236206 -2.2362213z" fill-rule="evenodd"/><path fill="#858585" d="m616.4202 45.81083l0 0c0 -1.2350311 1.0011597 -2.2362213 2.236206 -2.2362213l37.763794 0c0.5930786 0 1.1618652 0.23559952 1.5812378 0.6549721c0.41937256 0.41937256 0.65496826 0.9881668 0.65496826 1.5812492l0 0l0 0c0 1.2350311 -1.0011597 2.2362213 -2.236206 2.2362213l-37.763794 0c-1.2350464 0 -2.236206 -1.0011902 -2.236206 -2.2362213z" fill-rule="evenodd"/><path fill="#858585" d="m135.68018 45.8124l0 0c0 -1.2350311 1.0011902 -2.2362213 2.2362213 -2.2362213l37.76378 0c0.5930786 0 1.1618805 0.23560333 1.581253 0.6549759c0.41937256 0.41937256 0.65496826 0.988163 0.65496826 1.5812454l0 0l0 0c0 1.2350311 -1.0011902 2.2362213 -2.2362213 2.2362213l-37.76378 0c-1.2350311 0 -2.2362213 -1.0011902 -2.2362213 -2.2362213z" fill-rule="evenodd"/><path fill="#000000" fill-opacity="0.0" d="m42.20862 42.725838l0 0c0 -20.649609 15.841717 -37.389423 35.38347 -37.389423l0 0c9.384277 0 18.384201 3.9392319 25.01989 10.95111c6.635689 7.011877 10.363579 16.522024 10.363579 26.438314l0 0c0 20.649609 -15.841721 37.389427 -35.38347 37.389427l0 0c-19.541752 0 -35.38347 -16.739819 -35.38347 -37.389427z" fill-rule="evenodd"/><path stroke="#858585" stroke-width="4.0" stroke-linejoin="round" stroke-linecap="butt" d="m42.20862 42.725838l0 0c0 -20.649609 15.841717 -37.389423 35.38347 -37.389423l0 0c9.384277 0 18.384201 3.9392319 25.01989 10.95111c6.635689 7.011877 10.363579 16.522024 10.363579 26.438314l0 0c0 20.649609 -15.841721 37.389427 -35.38347 37.389427l0 0c-19.541752 0 -35.38347 -16.739819 -35.38347 -37.389427z" fill-rule="evenodd"/><path fill="#000000" fill-opacity="0.0" d="m-0.428823 93.89015l156.03734 0l0 56.169067l-156.03734 0z" fill-rule="evenodd"/><path fill="#858585" d="m62.315533 133.37485q0 -0.5625 -0.390625 -0.84375q-0.390625 -0.296875 -1.40625 -0.625q-1.015625 -0.328125 -1.609375 -0.65625q-1.625 -0.875 -1.625 -2.34375q0 -0.765625 0.4375 -1.359375q0.4375 -0.609375 1.25 -0.953125q0.8125 -0.34375 1.8125 -0.34375q1.015625 0 1.8125 0.375q0.796875 0.359375 1.234375 1.03125q0.4374962 0.671875 0.4374962 1.53125l-1.9531212 0q0 -0.65625 -0.40625 -1.015625q-0.40625 -0.359375 -1.15625 -0.359375q-0.71875 0 -1.125 0.3125q-0.390625 0.296875 -0.390625 0.78125q0 0.46875 0.46875 0.78125q0.46875 0.3125 1.375 0.578125q1.671875 0.5 2.421875 1.25q0.7656212 0.734375 0.7656212 1.84375q0 1.234375 -0.9374962 1.9375q-0.921875 0.6875 -2.5 0.6875q-1.09375 0 -2.0 -0.390625q-0.890625 -0.40625 -1.359375 -1.09375q-0.46875 -0.703125 -0.46875 -1.625l1.953125 0q0 1.578125 1.875 1.578125q0.703125 0 1.09375 -0.28125q0.390625 -0.296875 0.390625 -0.796875zm2.8496666 -1.09375q0 -1.0625 0.40625 -1.875q0.40625 -0.828125 1.15625 -1.265625q0.765625 -0.453125 1.765625 -0.453125q1.4375 0 2.328125 0.875q0.90625 0.875 1.015625 2.359375l0 0.484375q0 1.625 -0.90625 2.609375q-0.890625 0.96875 -2.421875 0.96875q-1.515625 0 -2.4375 -0.96875q-0.90625 -0.984375 -0.90625 -2.65625l0 -0.078125zm1.890625 0.125q0 1.0 0.375 1.53125q0.375 0.53125 1.078125 0.53125q0.6875 0 1.0625 -0.515625q0.390625 -0.53125 0.390625 -1.671875q0 -0.984375 -0.390625 -1.53125q-0.375 -0.546875 -1.078125 -0.546875q-0.6875 0 -1.0625 0.546875q-0.375 0.53125 -0.375 1.65625zm10.161118 2.734375q-0.6875 0.84375 -1.921875 0.84375q-1.140625 0 -1.734375 -0.640625q-0.59375 -0.65625 -0.609375 -1.90625l0 -4.625l1.890625 0l0 4.546875q0 1.109375 1.0 1.109375q0.953125 0 1.3125 -0.671875l0 -4.984375l1.890625 0l0 7.046875l-1.78125 0l-0.046875 -0.71875zm7.192398 -4.5625q-0.375 -0.046875 -0.671875 -0.046875q-1.0625 0 -1.390625 0.71875l0 4.609375l-1.890625 0l0 -7.046875l1.78125 0l0.046875 0.84375q0.578125 -0.96875 1.578125 -0.96875q0.3125 0 0.578125 0.078125l-0.03125 1.8125zm3.7220612 3.890625q0.515625 0 0.84375 -0.28125q0.328125 -0.28125 0.328125 -0.765625l1.765625 0q0 0.71875 -0.390625 1.3125q-0.375 0.59375 -1.046875 0.921875q-0.671875 0.328125 -1.46875 0.328125q-1.515625 0 -2.390625 -0.953125q-0.875 -0.96875 -0.875 -2.65625l0 -0.125q0 -1.625 0.859375 -2.59375q0.875 -0.96875 2.390625 -0.96875q1.3125 0 2.109375 0.75q0.8125 0.75 0.8125 2.0l-1.765625 0q0 -0.546875 -0.328125 -0.890625q-0.328125 -0.34375 -0.859375 -0.34375q-0.65625 0 -1.0 0.484375q-0.328125 0.484375 -0.328125 1.546875l0 0.203125q0 1.078125 0.328125 1.5625q0.328125 0.46875 1.015625 0.46875zm7.262909 1.515625q-1.546875 0 -2.53125 -0.9375q-0.96875 -0.953125 -0.96875 -2.53125l0 -0.1875q0 -1.0625 0.40625 -1.890625q0.40625 -0.84375 1.15625 -1.296875q0.765625 -0.453125 1.71875 -0.453125q1.453125 0 2.28125 0.921875q0.828125 0.90625 0.828125 2.578125l0 0.765625l-4.484375 0q0.09375 0.6875 0.546875 1.109375q0.46875 0.40625 1.171875 0.40625q1.078125 0 1.6875 -0.78125l0.921875 1.03125q-0.421875 0.59375 -1.140625 0.9375q-0.71875 0.328125 -1.59375 0.328125zm-0.21875 -5.78125q-0.5625 0 -0.90625 0.390625q-0.34375 0.375 -0.453125 1.078125l2.625 0l0 -0.15625q-0.015625 -0.625 -0.34375 -0.96875q-0.328125 -0.34375 -0.921875 -0.34375z" fill-rule="nonzero"/></g></svg>