<svg version="1.1" viewBox="0.0 0.0 816.0 432.0" fill="none" stroke="none" stroke-linecap="square" stroke-miterlimit="10" xmlns:xlink="http://www.w3.org/1999/xlink" xmlns="http://www.w3.org/2000/svg"><clipPath id="p.0"><path d="m0 0l816.0 0l0 432.0l-816.0 0l0 -432.0z" clip-rule="nonzero"/></clipPath><g clip-path="url(#p.0)"><path fill="#000000" fill-opacity="0.0" d="m0 0l816.0 0l0 432.0l-816.0 0z" fill-rule="evenodd"/><path fill="#000000" fill-opacity="0.0" d="m0.0012086615 0l215.1811 0l0 57.228348l-215.1811 0z" fill-rule="evenodd"/><path fill="#858585" d="m49.68256 19.32l-5.515625 0l0 15.0l-3.703125 0l0 -15.0l-5.4375 0l0 -3.0l14.65625 0l0 3.0zm-1.2473602 8.1875q0 -2.0 0.765625 -3.546875q0.765625 -1.5625 2.203125 -2.40625q1.453125 -0.859375 3.359375 -0.859375q2.703125 0 4.40625 1.65625q1.71875 1.65625 1.921875 4.5l0.03125 0.921875q0 3.078125 -1.734375 4.9375q-1.71875 1.859375 -4.609375 1.859375q-2.890625 0 -4.625 -1.859375q-1.71875 -1.859375 -1.71875 -5.046875l0 -0.15625zm3.578125 0.265625q0 1.890625 0.71875 2.90625q0.71875 1.0 2.046875 1.0q1.296875 0 2.03125 -0.984375q0.734375 -1.0 0.734375 -3.1875q0 -1.875 -0.734375 -2.890625q-0.734375 -1.03125 -2.046875 -1.03125q-1.3125 0 -2.03125 1.03125q-0.71875 1.015625 -0.71875 3.15625zm14.586895 -6.828125l0.125 1.546875q1.421875 -1.796875 3.84375 -1.796875q2.125 0 3.15625 1.25q1.046875 1.25 1.0625 3.734375l0 8.640625l-3.5625 0l0 -8.5625q0 -1.140625 -0.5 -1.640625q-0.5 -0.515625 -1.640625 -0.515625q-1.515625 0 -2.265625 1.28125l0 9.4375l-3.5781212 0l0 -13.375l3.3593712 0zm18.153992 9.671875q0 -0.65625 -0.65625 -1.03125q-0.640625 -0.375 -2.078125 -0.671875q-4.78125 -1.0 -4.78125 -4.0625q0 -1.765625 1.46875 -2.953125q1.484375 -1.203125 3.875 -1.203125q2.546875 0 4.078125 1.203125q1.53125 1.1875 1.53125 3.109375l-3.578125 0q0 -0.765625 -0.5 -1.265625q-0.484375 -0.5 -1.546875 -0.5q-0.890625 0 -1.390625 0.40625q-0.5 0.40625 -0.5 1.03125q0 0.59375 0.5625 0.96875q0.5625 0.359375 1.890625 0.625q1.34375 0.265625 2.265625 0.609375q2.828125 1.03125 2.828125 3.59375q0 1.828125 -1.578125 2.96875q-1.5625 1.125 -4.046875 1.125q-1.6875 0 -3.0 -0.59375q-1.296875 -0.609375 -2.046875 -1.65625q-0.734375 -1.046875 -0.734375 -2.25l3.390625 0q0.046875 0.953125 0.703125 1.46875q0.65625 0.5 1.765625 0.5q1.015625 0 1.546875 -0.390625q0.53125 -0.390625 0.53125 -1.03125zm11.517517 -3.109375q0 -2.0 0.765625 -3.546875q0.765625 -1.5625 2.203125 -2.40625q1.453125 -0.859375 3.359375 -0.859375q2.703125 0 4.40625 1.65625q1.71875 1.65625 1.921875 4.5l0.03125 0.921875q0 3.078125 -1.734375 4.9375q-1.71875 1.859375 -4.609375 1.859375q-2.890625 0 -4.625 -1.859375q-1.71875 -1.859375 -1.71875 -5.046875l0 -0.15625zm3.578125 0.265625q0 1.890625 0.71875 2.90625q0.71875 1.0 2.046875 1.0q1.296875 0 2.03125 -0.984375q0.734375 -1.0 0.734375 -3.1875q0 -1.875 -0.734375 -2.890625q-0.734375 -1.03125 -2.046875 -1.03125q-1.3125 0 -2.03125 1.03125q-0.71875 1.015625 -0.71875 3.15625zm12.274399 6.546875l0 -10.765625l-1.984375 0l0 -2.609375l1.984375 0l0 -1.140625q0 -2.25 1.296875 -3.484375q1.296875 -1.25 3.625 -1.25q0.734375 0 1.8125 0.234375l-0.03125 2.78125q-0.453125 -0.109375 -1.09375 -0.109375q-2.015625 0 -2.015625 1.890625l0 1.078125l2.65625 0l0 2.609375l-2.65625 0l0 10.765625l-3.59375 0zm19.978607 -2.640625q0.984375 0 1.609375 -0.53125q0.625 -0.546875 0.640625 -1.453125l3.359375 0q-0.015625 1.359375 -0.75 2.5q-0.734375 1.125 -2.0 1.75q-1.265625 0.625 -2.796875 0.625q-2.875 0 -4.53125 -1.828125q-1.65625 -1.828125 -1.65625 -5.03125l0 -0.234375q0 -3.09375 1.640625 -4.9375q1.65625 -1.84375 4.515625 -1.84375q2.515625 0 4.03125 1.4375q1.515625 1.421875 1.546875 3.796875l-3.359375 0q-0.015625 -1.046875 -0.640625 -1.6875q-0.625 -0.65625 -1.640625 -0.65625q-1.234375 0 -1.875 0.90625q-0.640625 0.90625 -0.640625 2.953125l0 0.375q0 2.0625 0.625 2.96875q0.640625 0.890625 1.921875 0.890625zm7.0832214 -4.171875q0 -2.0 0.765625 -3.546875q0.765625 -1.5625 2.203125 -2.40625q1.453125 -0.859375 3.359375 -0.859375q2.703125 0 4.40625 1.65625q1.71875 1.65625 1.921875 4.5l0.03125 0.921875q0 3.078125 -1.734375 4.9375q-1.71875 1.859375 -4.609375 1.859375q-2.890625 0 -4.625 -1.859375q-1.71875 -1.859375 -1.71875 -5.046875l0 -0.15625zm3.578125 0.265625q0 1.890625 0.71875 2.90625q0.71875 1.0 2.046875 1.0q1.296875 0 2.03125 -0.984375q0.734375 -1.0 0.734375 -3.1875q0 -1.875 -0.734375 -2.890625q-0.734375 -1.03125 -2.046875 -1.03125q-1.3125 0 -2.03125 1.03125q-0.71875 1.015625 -0.71875 3.15625zm10.743149 -0.25q0 -3.125 1.40625 -4.96875q1.40625 -1.859375 3.84375 -1.859375q1.953125 0 3.21875 1.453125l0 -6.828125l3.59375 0l0 19.0l-3.234375 0l-0.171875 -1.421875q-1.328125 1.671875 -3.4375 1.671875q-2.359375 0 -3.796875 -1.859375q-1.421875 -1.859375 -1.421875 -5.1875zm3.578125 0.265625q0 1.875 0.65625 2.890625q0.65625 1.0 1.90625 1.0q1.65625 0 2.328125 -1.40625l0 -5.28125q-0.65625 -1.390625 -2.3125 -1.390625q-2.578125 0 -2.578125 4.1875zm17.41243 6.78125q-2.9375 0 -4.796875 -1.796875q-1.84375 -1.8125 -1.84375 -4.828125l0 -0.34375q0 -2.015625 0.78125 -3.59375q0.78125 -1.59375 2.203125 -2.453125q1.4375 -0.859375 3.265625 -0.859375q2.734375 0 4.3125 1.734375q1.578125 1.71875 1.578125 4.90625l0 1.453125l-8.515625 0q0.171875 1.3125 1.046875 2.109375q0.875 0.78125 2.203125 0.78125q2.0625 0 3.234375 -1.484375l1.75 1.953125q-0.796875 1.140625 -2.171875 1.78125q-1.375 0.640625 -3.046875 0.640625zm-0.40625 -10.984375q-1.0625 0 -1.734375 0.71875q-0.65625 0.71875 -0.84375 2.046875l4.96875 0l0 -0.28125q-0.015625 -1.1875 -0.640625 -1.828125q-0.609375 -0.65625 -1.75 -0.65625z" fill-rule="nonzero"/><path fill="#000000" fill-opacity="0.0" d="m67.19976 294.53806l215.18109 0l0 105.921265l-215.18109 0z" fill-rule="evenodd"/><path fill="#ff0000" d="m85.01226 369.88867l3.75 -8.109375l4.0625 0l-5.921875 11.46875l0 6.53125l-3.765625 0l0 -6.53125l-5.90625 -11.46875l4.0625 0l3.71875 8.109375zm16.19014 9.890625q-0.25 -0.484375 -0.359375 -1.203125q-1.296875 1.453125 -3.375 1.453125q-1.96875 0 -3.265625 -1.140625q-1.28125 -1.140625 -1.28125 -2.875q0 -2.125 1.578125 -3.25q1.578125 -1.140625 4.546875 -1.15625l1.65625 0l0 -0.765625q0 -0.9375 -0.484375 -1.484375q-0.46875 -0.5625 -1.5 -0.5625q-0.90625 0 -1.421875 0.4375q-0.5 0.4375 -0.5 1.1875l-3.578125 0q0 -1.171875 0.71875 -2.15625q0.71875 -0.984375 2.015625 -1.546875q1.3125 -0.5625 2.953125 -0.5625q2.46875 0 3.921875 1.25q1.453125 1.234375 1.453125 3.484375l0 5.796875q0.015625 1.90625 0.53125 2.890625l0 0.203125l-3.609375 0zm-2.953125 -2.484375q0.796875 0 1.453125 -0.34375q0.671875 -0.359375 1.0 -0.953125l0 -2.296875l-1.34375 0q-2.6875 0 -2.859375 1.84375l0 0.21875q0 0.671875 0.46875 1.109375q0.46875 0.421875 1.28125 0.421875zm12.063614 -10.890625l0.125 1.546875q1.421875 -1.796875 3.84375 -1.796875q2.125 0 3.15625 1.25q1.046875 1.25 1.0625 3.734375l0 8.640625l-3.5625 0l0 -8.5625q0 -1.140625 -0.5 -1.640625q-0.5 -0.515625 -1.640625 -0.515625q-1.515625 0 -2.265625 1.28125l0 9.4375l-3.578125 0l0 -13.375l3.359375 0zm10.341492 6.578125q0 -3.125 1.40625 -4.96875q1.40625 -1.859375 3.84375 -1.859375q1.953125 0 3.2187424 1.453125l0 -6.828125l3.59375 0l0 19.0l-3.234375 0l-0.171875 -1.421875q-1.3281174 1.671875 -3.4374924 1.671875q-2.359375 0 -3.796875 -1.859375q-1.421875 -1.859375 -1.421875 -5.1875zm3.578125 0.265625q0 1.875 0.65625 2.890625q0.65625 1.0 1.90625 1.0q1.6562424 0 2.3281174 -1.40625l0 -5.28125q-0.65625 -1.390625 -2.3124924 -1.390625q-2.578125 0 -2.578125 4.1875zm17.412422 6.78125q-2.9375 0 -4.796875 -1.796875q-1.84375 -1.8125 -1.84375 -4.828125l0 -0.34375q0 -2.015625 0.78125 -3.59375q0.78125 -1.59375 2.203125 -2.453125q1.4375 -0.859375 3.265625 -0.859375q2.734375 0 4.3125 1.734375q1.578125 1.71875 1.578125 4.90625l0 1.453125l-8.515625 0q0.171875 1.3125 1.046875 2.109375q0.875 0.78125 2.203125 0.78125q2.0625 0 3.234375 -1.484375l1.75 1.953125q-0.796875 1.140625 -2.171875 1.78125q-1.375 0.640625 -3.046875 0.640625zm-0.40625 -10.984375q-1.0625 0 -1.734375 0.71875q-0.65625 0.71875 -0.84375 2.046875l4.96875 0l0 -0.28125q-0.015625 -1.1875 -0.640625 -1.828125q-0.609375 -0.65625 -1.75 -0.65625zm13.034302 1.34375l2.25 -3.984375l3.828125 0l-3.8125 6.546875l3.96875 6.828125l-3.828125 0l-2.390625 -4.203125l-2.375 4.203125l-3.84375 0l3.96875 -6.828125l-3.796875 -6.546875l3.828125 0l2.203125 3.984375z" fill-rule="nonzero"/><path fill="#858585" d="m178.77945 376.07617l-6.515625 0l-1.234375 3.703125l-3.9375 0l6.703125 -18.0l3.4375 0l6.734375 18.0l-3.953125 0l-1.234375 -3.703125zm-5.515625 -3.015625l4.5 0l-2.25 -6.734375l-2.25 6.734375zm11.5889435 -0.078125q0 -3.125 1.40625 -4.96875q1.40625 -1.859375 3.84375 -1.859375q1.953125 0 3.21875 1.453125l0 -6.828125l3.59375 0l0 19.0l-3.234375 0l-0.171875 -1.421875q-1.328125 1.671875 -3.4375 1.671875q-2.359375 0 -3.796875 -1.859375q-1.421875 -1.859375 -1.421875 -5.1875zm3.578125 0.265625q0 1.875 0.65625 2.890625q0.65625 1.0 1.90625 1.0q1.65625 0 2.328125 -1.40625l0 -5.28125q-0.65625 -1.390625 -2.3125 -1.390625q-2.578125 0 -2.578125 4.1875zm18.50618 2.828125q0 -0.65625 -0.65625 -1.03125q-0.640625 -0.375 -2.078125 -0.671875q-4.78125 -1.0 -4.78125 -4.0625q0 -1.765625 1.46875 -2.953125q1.484375 -1.203125 3.875 -1.203125q2.546875 0 4.078125 1.203125q1.53125 1.1875 1.53125 3.109375l-3.578125 0q0 -0.765625 -0.5 -1.265625q-0.484375 -0.5 -1.546875 -0.5q-0.890625 0 -1.390625 0.40625q-0.5 0.40625 -0.5 1.03125q0 0.59375 0.5625 0.96875q0.5625 0.359375 1.890625 0.625q1.34375 0.265625 2.265625 0.609375q2.828125 1.03125 2.828125 3.59375q0 1.828125 -1.578125 2.96875q-1.5625 1.125 -4.046875 1.125q-1.6875 0 -3.0 -0.59375q-1.296875 -0.609375 -2.046875 -1.65625q-0.734375 -1.046875 -0.734375 -2.25l3.390625 0q0.046875 0.953125 0.703125 1.46875q0.65625 0.5 1.765625 0.5q1.015625 0 1.546875 -0.390625q0.53125 -0.390625 0.53125 -1.03125zm16.251892 3.703125l-3.703125 0l0 -18.0l3.703125 0l0 18.0zm6.49263 -13.375l0.125 1.546875q1.421875 -1.796875 3.84375 -1.796875q2.125 0 3.15625 1.25q1.046875 1.25 1.0625 3.734375l0 8.640625l-3.5625 0l0 -8.5625q0 -1.140625 -0.5 -1.640625q-0.5 -0.515625 -1.640625 -0.515625q-1.515625 0 -2.265625 1.28125l0 9.4375l-3.578125 0l0 -13.375l3.359375 0zm11.872742 13.375l0 -10.765625l-1.984375 0l0 -2.609375l1.984375 0l0 -1.140625q0 -2.25 1.296875 -3.484375q1.296875 -1.25 3.625 -1.25q0.734375 0 1.8125 0.234375l-0.03125 2.78125q-0.453125 -0.109375 -1.09375 -0.109375q-2.015625 0 -2.015625 1.890625l0 1.078125l2.65625 0l0 2.609375l-2.65625 0l0 10.765625l-3.59375 0zm15.624435 -10.03125q-0.734375 -0.09375 -1.28125 -0.09375q-2.03125 0 -2.65625 1.375l0 8.75l-3.578125 0l0 -13.375l3.375 0l0.09375 1.59375q1.078125 -1.84375 2.984375 -1.84375q0.59375 0 1.109375 0.15625l-0.046875 3.4375zm9.101624 10.03125q-0.25 -0.484375 -0.359375 -1.203125q-1.296875 1.453125 -3.375 1.453125q-1.96875 0 -3.265625 -1.140625q-1.28125 -1.140625 -1.28125 -2.875q0 -2.125 1.578125 -3.25q1.578125 -1.140625 4.546875 -1.15625l1.65625 0l0 -0.765625q0 -0.9375 -0.484375 -1.484375q-0.46875 -0.5625 -1.5 -0.5625q-0.90625 0 -1.421875 0.4375q-0.5 0.4375 -0.5 1.1875l-3.578125 0q0 -1.171875 0.71875 -2.15625q0.71875 -0.984375 2.015625 -1.546875q1.3125 -0.5625 2.953125 -0.5625q2.46875 0 3.921875 1.25q1.453125 1.234375 1.453125 3.484375l0 5.796875q0.015625 1.90625 0.53125 2.890625l0 0.203125l-3.609375 0zm-2.953125 -2.484375q0.796875 0 1.453125 -0.34375q0.671875 -0.359375 1.0 -0.953125l0 -2.296875l-1.34375 0q-2.6875 0 -2.859375 1.84375l0 0.21875q0 0.671875 0.46875 1.109375q0.46875 0.421875 1.28125 0.421875z" fill-rule="nonzero"/><path fill="#000000" fill-opacity="0.0" d="m105.9969 57.3186l102.708664 176.06299" fill-rule="evenodd"/><path stroke="#b7b7b7" stroke-width="1.0" stroke-linejoin="round" stroke-linecap="butt" d="m105.9969 57.3186l102.708664 176.06299" fill-rule="evenodd"/><path fill="#cccccc" d="m307.6497 236.41275l-33.00946 -34.047256l-229.28973 0l33.009483 34.047256z" fill-rule="evenodd"/><path fill="#858585" d="m45.37054 272.91727l33.00948 -34.04724l229.28972 0l-33.00946 34.04724z" fill-rule="evenodd"/></g></svg>