<svg version="1.1" viewBox="0.0 0.0 960.0 720.0" fill="none" stroke="none" stroke-linecap="square" stroke-miterlimit="10" xmlns:xlink="http://www.w3.org/1999/xlink" xmlns="http://www.w3.org/2000/svg"><clipPath id="p.0"><path d="m0 0l960.0 0l0 720.0l-960.0 0l0 -720.0z" clip-rule="nonzero"/></clipPath><g clip-path="url(#p.0)"><path fill="#000000" fill-opacity="0.0" d="m0 0l960.0 0l0 720.0l-960.0 0z" fill-rule="evenodd"/><path fill="#000000" fill-opacity="0.0" d="m68.8516 174.85301l215.02362 0l0 49.984253l-215.02362 0z" fill-rule="evenodd"/><path fill="#858585" d="m121.504036 192.67427l-5.234375 0l0 14.21875l-3.515625 0l0 -14.21875l-5.15625 0l0 -2.84375l13.90625 0l0 2.84375zm-1.1835938 7.765625q0 -1.890625 0.71875 -3.359375q0.734375 -1.484375 2.09375 -2.296875q1.359375 -0.8125 3.171875 -0.8125q2.5625076 0 4.1875076 1.578125q1.625 1.5625 1.8125 4.265625l0.015625 0.859375q0 2.921875 -1.625 4.6875q-1.625 1.765625 -4.3750076 1.765625q-2.734375 0 -4.375 -1.75q-1.625 -1.765625 -1.625 -4.796875l0 -0.140625zm3.375 0.234375q0 1.8125 0.671875 2.765625q0.6875 0.953125 1.953125 0.953125q1.234375 0 1.9218826 -0.9375q0.703125 -0.953125 0.703125 -3.015625q0 -1.78125 -0.703125 -2.75q-0.6875076 -0.96875 -1.9375076 -0.96875q-1.25 0 -1.9375 0.96875q-0.671875 0.96875 -0.671875 2.984375zm13.835945 -6.46875l0.109375 1.46875q1.359375 -1.703125 3.640625 -1.703125q2.015625 0 3.0 1.1875q0.984375 1.1875 1.0 3.546875l0 8.1875l-3.375 0l0 -8.109375q0 -1.078125 -0.46875 -1.5625q-0.46875 -0.484375 -1.5625 -0.484375q-1.4375 0 -2.140625 1.21875l0 8.9375l-3.390625 0l0 -12.6875l3.1875 0zm17.191406 9.1875q0 -0.625 -0.625 -0.984375q-0.609375 -0.359375 -1.96875 -0.640625q-4.515625 -0.953125 -4.515625 -3.84375q0 -1.6875 1.390625 -2.8125q1.40625 -1.140625 3.671875 -1.140625q2.40625 0 3.84375 1.140625q1.453125 1.140625 1.453125 2.953125l-3.375 0q0 -0.71875 -0.46875 -1.1875q-0.46875 -0.484375 -1.46875 -0.484375q-0.859375 0 -1.328125 0.390625q-0.46875 0.375 -0.46875 0.984375q0 0.5625 0.53125 0.90625q0.53125 0.34375 1.796875 0.59375q1.265625 0.25 2.140625 0.5625q2.6875 0.984375 2.6875 3.421875q0 1.734375 -1.5 2.8125q-1.484375 1.0625 -3.84375 1.0625q-1.59375 0 -2.828125 -0.5625q-1.234375 -0.578125 -1.9375 -1.5625q-0.703125 -1.0 -0.703125 -2.140625l3.21875 0q0.046875 0.90625 0.65625 1.390625q0.625 0.46875 1.671875 0.46875q0.96875 0 1.46875 -0.359375q0.5 -0.375 0.5 -0.96875zm10.925781 -2.953125q0 -1.890625 0.71875 -3.359375q0.734375 -1.484375 2.09375 -2.296875q1.359375 -0.8125 3.171875 -0.8125q2.5625 0 4.1875 1.578125q1.625 1.5625 1.8125 4.265625l0.015625 0.859375q0 2.921875 -1.625 4.6875q-1.625 1.765625 -4.375 1.765625q-2.734375 0 -4.375 -1.75q-1.625 -1.765625 -1.625 -4.796875l0 -0.140625zm3.375 0.234375q0 1.8125 0.671875 2.765625q0.6875 0.953125 1.953125 0.953125q1.234375 0 1.921875 -0.9375q0.703125 -0.953125 0.703125 -3.015625q0 -1.78125 -0.703125 -2.75q-0.6875 -0.96875 -1.9375 -0.96875q-1.25 0 -1.9375 0.96875q-0.671875 0.96875 -0.671875 2.984375zm11.6484375 6.21875l0 -10.203125l-1.890625 0l0 -2.484375l1.890625 0l0 -1.078125q0 -2.125 1.21875 -3.296875q1.21875 -1.1875 3.421875 -1.1875q0.703125 0 1.734375 0.234375l-0.046875 2.625q-0.421875 -0.109375 -1.03125 -0.109375q-1.90625 0 -1.90625 1.796875l0 1.015625l2.515625 0l0 2.484375l-2.515625 0l0 10.203125l-3.390625 0zm18.921875 -2.5q0.9375 0 1.515625 -0.515625q0.59375 -0.515625 0.609375 -1.375l3.1875 0q-0.015625 1.296875 -0.71875 2.375q-0.6875 1.0625 -1.890625 1.65625q-1.1875 0.59375 -2.640625 0.59375q-2.71875 0 -4.296875 -1.71875q-1.5625 -1.734375 -1.5625 -4.78125l0 -0.234375q0 -2.921875 1.546875 -4.671875q1.5625 -1.75 4.28125 -1.75q2.375 0 3.8125 1.359375q1.4375 1.359375 1.46875 3.609375l-3.1875 0q-0.015625 -0.984375 -0.609375 -1.59375q-0.578125 -0.625 -1.546875 -0.625q-1.171875 0 -1.78125 0.859375q-0.609375 0.859375 -0.609375 2.796875l0 0.34375q0 1.96875 0.59375 2.828125q0.609375 0.84375 1.828125 0.84375zm6.71875 -3.953125q0 -1.890625 0.71875 -3.359375q0.734375 -1.484375 2.09375 -2.296875q1.359375 -0.8125 3.171875 -0.8125q2.5625 0 4.1875 1.578125q1.625 1.5625 1.8125 4.265625l0.015625 0.859375q0 2.921875 -1.625 4.6875q-1.625 1.765625 -4.375 1.765625q-2.734375 0 -4.375 -1.75q-1.625 -1.765625 -1.625 -4.796875l0 -0.140625zm3.375 0.234375q0 1.8125 0.671875 2.765625q0.6875 0.953125 1.953125 0.953125q1.234375 0 1.921875 -0.9375q0.703125 -0.953125 0.703125 -3.015625q0 -1.78125 -0.703125 -2.75q-0.6875 -0.96875 -1.9375 -0.96875q-1.25 0 -1.9375 0.96875q-0.671875 0.96875 -0.671875 2.984375zm10.1953125 -0.21875q0 -2.96875 1.328125 -4.71875q1.328125 -1.765625 3.640625 -1.765625q1.84375 0 3.046875 1.390625l0 -6.46875l3.40625 0l0 18.0l-3.0625 0l-0.15625 -1.34375q-1.265625 1.578125 -3.265625 1.578125q-2.234375 0 -3.59375 -1.765625q-1.34375 -1.765625 -1.34375 -4.90625zm3.375 0.25q0 1.78125 0.625 2.734375q0.625 0.9375 1.8125 0.9375q1.5625 0 2.203125 -1.3125l0 -5.015625q-0.625 -1.3125 -2.1875 -1.3125q-2.453125 0 -2.453125 3.96875zm16.507812 6.421875q-2.796875 0 -4.546875 -1.703125q-1.75 -1.71875 -1.75 -4.5625l0 -0.328125q0 -1.921875 0.734375 -3.421875q0.75 -1.5 2.09375 -2.3125q1.359375 -0.828125 3.09375 -0.828125q2.59375 0 4.09375 1.640625q1.5 1.640625 1.5 4.65625l0 1.390625l-8.078125 0q0.15625 1.234375 0.984375 1.984375q0.828125 0.75 2.09375 0.75q1.953125 0 3.0625 -1.421875l1.65625 1.875q-0.75 1.078125 -2.0625 1.6875q-1.296875 0.59375 -2.875 0.59375zm-0.390625 -10.40625q-1.0 0 -1.640625 0.6875q-0.625 0.671875 -0.796875 1.9375l4.71875 0l0 -0.265625q-0.03125 -1.125 -0.625 -1.734375q-0.578125 -0.625 -1.65625 -0.625z" fill-rule="nonzero"/><path fill="#000000" fill-opacity="0.0" d="m136.00519 432.07812l215.02362 0l0 92.50391l-215.02362 0z" fill-rule="evenodd"/><path fill="#ff0000" d="m152.41144 496.24707l3.546875 -7.6875l3.84375 0l-5.59375 10.875l0 6.1875l-3.578125 0l0 -6.1875l-5.59375 -10.875l3.84375 0l3.53125 7.6875zm15.347656 9.375q-0.234375 -0.453125 -0.34375 -1.140625q-1.234375 1.375 -3.203125 1.375q-1.859375 0 -3.09375 -1.078125q-1.21875 -1.078125 -1.21875 -2.71875q0 -2.015625 1.484375 -3.09375q1.5 -1.078125 4.328125 -1.09375l1.5625 0l0 -0.71875q0 -0.890625 -0.453125 -1.40625q-0.453125 -0.53125 -1.421875 -0.53125q-0.859375 0 -1.34375 0.40625q-0.484375 0.40625 -0.484375 1.125l-3.390625 0q0 -1.09375 0.671875 -2.03125q0.6875 -0.9375 1.921875 -1.46875q1.25 -0.546875 2.796875 -0.546875q2.34375 0 3.71875 1.1875q1.375 1.171875 1.375 3.3125l0 5.484375q0.015625 1.8125 0.515625 2.734375l0 0.203125l-3.421875 0zm-2.8125 -2.359375q0.75 0 1.375 -0.328125q0.640625 -0.34375 0.953125 -0.90625l0 -2.171875l-1.265625 0q-2.546875 0 -2.703125 1.75l-0.015625 0.203125q0 0.640625 0.4375 1.046875q0.453125 0.40625 1.21875 0.40625zm11.4453125 -10.328125l0.109375 1.46875q1.359375 -1.703125 3.640625 -1.703125q2.015625 0 3.0 1.1875q0.984375 1.1875 1.0 3.546875l0 8.1875l-3.375 0l0 -8.109375q0 -1.078125 -0.46875 -1.5625q-0.46875 -0.484375 -1.5625 -0.484375q-1.4375 0 -2.140625 1.21875l0 8.9375l-3.390625 0l0 -12.6875l3.1875 0zm9.800781 6.25q0 -2.96875 1.328125 -4.71875q1.328125 -1.765625 3.640625 -1.765625q1.84375 0 3.046875 1.390625l0 -6.46875l3.40625 0l0 18.0l-3.0625 0l-0.15625 -1.34375q-1.265625 1.578125 -3.265625 1.578125q-2.234375 0 -3.59375 -1.765625q-1.34375 -1.765625 -1.34375 -4.90625zm3.375 0.25q0 1.78125 0.625 2.734375q0.625 0.9375 1.8125 0.9375q1.5625 0 2.203125 -1.3125l0 -5.015625q-0.625 -1.3125 -2.1875 -1.3125q-2.453125 0 -2.453125 3.96875zm16.507812 6.421875q-2.796875 0 -4.546875 -1.703125q-1.75 -1.71875 -1.75 -4.5625l0 -0.328125q0 -1.921875 0.734375 -3.421875q0.75 -1.5 2.09375 -2.3125q1.359375 -0.828125 3.09375 -0.828125q2.59375 0 4.09375 1.640625q1.5 1.640625 1.5 4.65625l0 1.390625l-8.078125 0q0.15625 1.234375 0.984375 1.984375q0.828125 0.75 2.09375 0.75q1.953125 0 3.0625 -1.421875l1.65625 1.875q-0.75 1.078125 -2.0625 1.6875q-1.296875 0.59375 -2.875 0.59375zm-0.390625 -10.40625q-1.0 0 -1.640625 0.6875q-0.625 0.671875 -0.796875 1.9375l4.71875 0l0 -0.265625q-0.03125 -1.125 -0.625 -1.734375q-0.578125 -0.625 -1.65625 -0.625zm12.347656 1.28125l2.140625 -3.796875l3.625 0l-3.609375 6.21875l3.75 6.46875l-3.625 0l-2.265625 -3.984375l-2.25 3.984375l-3.640625 0l3.765625 -6.46875l-3.609375 -6.21875l3.640625 0l2.078125 3.796875z" fill-rule="nonzero"/><path fill="#858585" d="m241.25128 502.10645l-6.15625 0l-1.171875 3.515625l-3.75 0l6.359375 -17.0625l3.25 0l6.390625 17.0625l-3.734375 0l-1.1875 -3.515625zm-5.21875 -2.84375l4.265625 0l-2.140625 -6.390625l-2.125 6.390625zm10.9921875 -0.078125q0 -2.96875 1.328125 -4.71875q1.328125 -1.765625 3.640625 -1.765625q1.84375 0 3.046875 1.390625l0 -6.46875l3.40625 0l0 18.0l-3.0625 0l-0.15625 -1.34375q-1.265625 1.578125 -3.265625 1.578125q-2.234375 0 -3.59375 -1.765625q-1.34375 -1.765625 -1.34375 -4.90625zm3.375 0.25q0 1.78125 0.625 2.734375q0.625 0.9375 1.8125 0.9375q1.5625 0 2.203125 -1.3125l0 -5.015625q-0.625 -1.3125 -2.1875 -1.3125q-2.453125 0 -2.453125 3.96875zm17.539062 2.6875q0 -0.625 -0.625 -0.984375q-0.609375 -0.359375 -1.96875 -0.640625q-4.515625 -0.953125 -4.515625 -3.84375q0 -1.6875 1.390625 -2.8125q1.40625 -1.140625 3.671875 -1.140625q2.40625 0 3.84375 1.140625q1.453125 1.140625 1.453125 2.953125l-3.375 0q0 -0.71875 -0.46875 -1.1875q-0.46875 -0.484375 -1.46875 -0.484375q-0.859375 0 -1.328125 0.390625q-0.46875 0.375 -0.46875 0.984375q0 0.5625 0.53125 0.90625q0.53125 0.34375 1.796875 0.59375q1.265625 0.25 2.140625 0.5625q2.6875 0.984375 2.6875 3.421875q0 1.734375 -1.5 2.8125q-1.484375 1.0625 -3.84375 1.0625q-1.59375 0 -2.828125 -0.5625q-1.234375 -0.578125 -1.9375 -1.5625q-0.703125 -1.0 -0.703125 -2.140625l3.21875 0q0.046875 0.90625 0.65625 1.390625q0.625 0.46875 1.671875 0.46875q0.96875 0 1.46875 -0.359375q0.5 -0.375 0.5 -0.96875zm15.410156 3.5l-3.515625 0l0 -17.0625l3.515625 0l0 17.0625zm6.1523438 -12.6875l0.109375 1.46875q1.359375 -1.703125 3.640625 -1.703125q2.015625 0 3.0 1.1875q0.984375 1.1875 1.0 3.546875l0 8.1875l-3.375 0l0 -8.109375q0 -1.078125 -0.46875 -1.5625q-0.46875 -0.484375 -1.5625 -0.484375q-1.4375 0 -2.140625 1.21875l0 8.9375l-3.390625 0l0 -12.6875l3.1875 0zm11.253906 12.6875l0 -10.203125l-1.890625 0l0 -2.484375l1.890625 0l0 -1.078125q0 -2.125 1.21875 -3.296875q1.21875 -1.1875 3.421875 -1.1875q0.703125 0 1.734375 0.234375l-0.046875 2.625q-0.421875 -0.109375 -1.03125 -0.109375q-1.90625 0 -1.90625 1.796875l0 1.015625l2.515625 0l0 2.484375l-2.515625 0l0 10.203125l-3.390625 0zm14.7890625 -9.5q-0.6875 -0.09375 -1.21875 -0.09375q-1.921875 0 -2.515625 1.296875l0 8.296875l-3.390625 0l0 -12.6875l3.203125 0l0.09375 1.515625q1.015625 -1.75 2.828125 -1.75q0.5625 0 1.046875 0.15625l-0.046875 3.265625zm8.636719 9.5q-0.234375 -0.453125 -0.34375 -1.140625q-1.234375 1.375 -3.203125 1.375q-1.859375 0 -3.09375 -1.078125q-1.21875 -1.078125 -1.21875 -2.71875q0 -2.015625 1.484375 -3.09375q1.5 -1.078125 4.328125 -1.09375l1.5625 0l0 -0.71875q0 -0.890625 -0.453125 -1.40625q-0.453125 -0.53125 -1.421875 -0.53125q-0.859375 0 -1.34375 0.40625q-0.484375 0.40625 -0.484375 1.125l-3.390625 0q0 -1.09375 0.671875 -2.03125q0.6875 -0.9375 1.921875 -1.46875q1.25 -0.546875 2.796875 -0.546875q2.34375 0 3.71875 1.1875q1.375 1.171875 1.375 3.3125l0 5.484375q0.015625 1.8125 0.515625 2.734375l0 0.203125l-3.421875 0zm-2.8125 -2.359375q0.75 0 1.375 -0.328125q0.640625 -0.34375 0.953125 -0.90625l0 -2.171875l-1.265625 0q-2.546875 0 -2.703125 1.75l-0.015625 0.203125q0 0.640625 0.4375 1.046875q0.453125 0.40625 1.21875 0.40625z" fill-rule="nonzero"/><path fill="#000000" fill-opacity="0.0" d="m174.77638 224.91032l102.645676 153.76378" fill-rule="evenodd"/><path stroke="#b7b7b7" stroke-width="1.0" stroke-linejoin="round" stroke-linecap="butt" d="m174.77638 224.91032l102.645676 153.76378" fill-rule="evenodd"/><path fill="#cccccc" d="m376.29428 381.31454l-28.82605 -29.7323l-233.28421 0l28.826042 29.7323z" fill-rule="evenodd"/><path fill="#858585" d="m114.19058 413.19455l28.826035 -29.73227l233.2842 0l-28.82605 29.73227z" fill-rule="evenodd"/><path fill="#000000" fill-opacity="0.0" d="m358.33072 432.07874l244.56693 0l0 92.50397l-244.56693 0z" fill-rule="evenodd"/><path fill="#ff0000" d="m374.73697 496.24768l3.546875 -7.6875l3.84375 0l-5.59375 10.875l0 6.1875l-3.578125 0l0 -6.1875l-5.59375 -10.875l3.84375 0l3.53125 7.6875zm15.347656 9.375q-0.234375 -0.453125 -0.34375 -1.140625q-1.234375 1.375 -3.203125 1.375q-1.859375 0 -3.09375 -1.078125q-1.21875 -1.078125 -1.21875 -2.71875q0 -2.015625 1.484375 -3.09375q1.5 -1.078125 4.328125 -1.09375l1.5625 0l0 -0.71875q0 -0.890625 -0.453125 -1.40625q-0.453125 -0.53125 -1.421875 -0.53125q-0.859375 0 -1.34375 0.40625q-0.484375 0.40625 -0.484375 1.125l-3.390625 0q0 -1.09375 0.671875 -2.03125q0.6875 -0.9375 1.921875 -1.46875q1.25 -0.546875 2.796875 -0.546875q2.34375 0 3.71875 1.1875q1.375 1.171875 1.375 3.3125l0 5.484375q0.015625 1.8125 0.515625 2.734375l0 0.203125l-3.421875 0zm-2.8125 -2.359375q0.75 0 1.375 -0.328125q0.640625 -0.34375 0.953125 -0.90625l0 -2.171875l-1.265625 0q-2.546875 0 -2.703125 1.75l-0.015625 0.203125q0 0.640625 0.4375 1.046875q0.453125 0.40625 1.21875 0.40625zm11.4453125 -10.328125l0.109375 1.46875q1.359375 -1.703125 3.640625 -1.703125q2.015625 0 3.0 1.1875q0.984375 1.1875 1.0 3.546875l0 8.1875l-3.375 0l0 -8.109375q0 -1.078125 -0.46875 -1.5625q-0.46875 -0.484375 -1.5625 -0.484375q-1.4375 0 -2.140625 1.21875l0 8.9375l-3.390625 0l0 -12.6875l3.1875 0zm9.800781 6.25q0 -2.96875 1.328125 -4.71875q1.328125 -1.765625 3.640625 -1.765625q1.84375 0 3.046875 1.390625l0 -6.46875l3.40625 0l0 18.0l-3.0625 0l-0.15625 -1.34375q-1.265625 1.578125 -3.265625 1.578125q-2.234375 0 -3.59375 -1.765625q-1.34375 -1.765625 -1.34375 -4.90625zm3.375 0.25q0 1.78125 0.625 2.734375q0.625 0.9375 1.8125 0.9375q1.5625 0 2.203125 -1.3125l0 -5.015625q-0.625 -1.3125 -2.1875 -1.3125q-2.453125 0 -2.453125 3.96875zm16.507812 6.421875q-2.796875 0 -4.546875 -1.703125q-1.75 -1.71875 -1.75 -4.5625l0 -0.328125q0 -1.921875 0.734375 -3.421875q0.75 -1.5 2.09375 -2.3125q1.359375 -0.828125 3.09375 -0.828125q2.59375 0 4.09375 1.640625q1.5 1.640625 1.5 4.65625l0 1.390625l-8.078125 0q0.15625 1.234375 0.984375 1.984375q0.828125 0.75 2.09375 0.75q1.953125 0 3.0625 -1.421875l1.65625 1.875q-0.75 1.078125 -2.0625 1.6875q-1.296875 0.59375 -2.875 0.59375zm-0.390625 -10.40625q-1.0 0 -1.640625 0.6875q-0.625 0.671875 -0.796875 1.9375l4.71875 0l0 -0.265625q-0.03125 -1.125 -0.625 -1.734375q-0.578125 -0.625 -1.65625 -0.625zm12.347656 1.28125l2.140625 -3.796875l3.625 0l-3.609375 6.21875l3.75 6.46875l-3.625 0l-2.265625 -3.984375l-2.25 3.984375l-3.640625 0l3.765625 -6.46875l-3.609375 -6.21875l3.640625 0l2.078125 3.796875z" fill-rule="nonzero"/><path fill="#858585" d="m462.79556 501.1383q0 -0.984375 -0.703125 -1.515625q-0.703125 -0.546875 -2.53125 -1.125q-1.828125 -0.59375 -2.890625 -1.171875q-2.90625 -1.578125 -2.90625 -4.234375q0 -1.375 0.765625 -2.453125q0.78125 -1.09375 2.234375 -1.703125q1.46875 -0.609375 3.28125 -0.609375q1.828125 0 3.25 0.671875q1.4375 0.65625 2.234375 1.859375q0.796875 1.203125 0.796875 2.734375l-3.515625 0q0 -1.171875 -0.75 -1.8125q-0.734375 -0.65625 -2.0625 -0.65625q-1.296875 0 -2.015625 0.546875q-0.703125 0.546875 -0.703125 1.4375q0 0.828125 0.828125 1.390625q0.84375 0.5625 2.46875 1.0625q3.0 0.890625 4.375 2.234375q1.375 1.328125 1.375 3.328125q0 2.21875 -1.6875 3.484375q-1.671875 1.25 -4.5 1.25q-1.96875 0 -3.59375 -0.71875q-1.609375 -0.71875 -2.46875 -1.96875q-0.84375 -1.265625 -0.84375 -2.921875l3.53125 0q0 2.828125 3.375 2.828125q1.25 0 1.953125 -0.5q0.703125 -0.515625 0.703125 -1.4375zm11.519531 4.71875q-2.796875 0 -4.546875 -1.703125q-1.75 -1.71875 -1.75 -4.5625l0 -0.328125q0 -1.921875 0.734375 -3.421875q0.75 -1.5 2.09375 -2.3125q1.359375 -0.828125 3.09375 -0.828125q2.59375 0 4.09375 1.640625q1.5 1.640625 1.5 4.65625l0 1.390625l-8.078125 0q0.15625 1.234375 0.984375 1.984375q0.828125 0.75 2.09375 0.75q1.953125 0 3.0625 -1.421875l1.65625 1.875q-0.75 1.078125 -2.0625 1.6875q-1.296875 0.59375 -2.875 0.59375zm-0.390625 -10.40625q-1.0 0 -1.640625 0.6875q-0.625 0.671875 -0.796875 1.9375l4.71875 0l0 -0.265625q-0.03125 -1.125 -0.625 -1.734375q-0.578125 -0.625 -1.65625 -0.625zm14.878906 10.171875q-0.234375 -0.453125 -0.34375 -1.140625q-1.234375 1.375 -3.203125 1.375q-1.859375 0 -3.09375 -1.078125q-1.21875 -1.078125 -1.21875 -2.71875q0 -2.015625 1.484375 -3.09375q1.5 -1.078125 4.328125 -1.09375l1.5625 0l0 -0.71875q0 -0.890625 -0.453125 -1.40625q-0.453125 -0.53125 -1.421875 -0.53125q-0.859375 0 -1.34375 0.40625q-0.484375 0.40625 -0.484375 1.125l-3.390625 0q0 -1.09375 0.671875 -2.03125q0.6875 -0.9375 1.921875 -1.46875q1.25 -0.546875 2.796875 -0.546875q2.34375 0 3.71875 1.1875q1.375 1.171875 1.375 3.3125l0 5.484375q0.015625 1.8125 0.515625 2.734375l0 0.203125l-3.421875 0zm-2.8125 -2.359375q0.75 0 1.375 -0.328125q0.640625 -0.34375 0.953125 -0.90625l0 -2.171875l-1.265625 0q-2.546875 0 -2.703125 1.75l-0.015625 0.203125q0 0.640625 0.4375 1.046875q0.453125 0.40625 1.21875 0.40625zm15.4453125 -7.140625q-0.6875 -0.09375 -1.21875 -0.09375q-1.921875 0 -2.515625 1.296875l0 8.296875l-3.390625 0l0 -12.6875l3.203125 0l0.09375 1.515625q1.015625 -1.75 2.828125 -1.75q0.5625 0 1.046875 0.15625l-0.046875 3.265625zm6.6875 7.0q0.9375 0 1.515625 -0.515625q0.59375 -0.515625 0.609375 -1.375l3.1874695 0q-0.015625 1.296875 -0.71875 2.375q-0.6875 1.0625 -1.8905945 1.65625q-1.1875 0.59375 -2.640625 0.59375q-2.71875 0 -4.296875 -1.71875q-1.5625 -1.734375 -1.5625 -4.78125l0 -0.234375q0 -2.921875 1.546875 -4.671875q1.5625 -1.75 4.28125 -1.75q2.375 0 3.8125 1.359375q1.4374695 1.359375 1.4687195 3.609375l-3.1874695 0q-0.015625 -0.984375 -0.609375 -1.59375q-0.578125 -0.625 -1.546875 -0.625q-1.171875 0 -1.78125 0.859375q-0.609375 0.859375 -0.609375 2.796875l0 0.34375q0 1.96875 0.59375 2.828125q0.609375 0.84375 1.828125 0.84375zm10.5468445 -8.796875q1.34375 -1.625 3.390625 -1.625q4.125 0 4.171875 4.796875l0 8.125l-3.375 0l0 -8.03125q0 -1.09375 -0.46875 -1.609375q-0.46875 -0.515625 -1.5625 -0.515625q-1.484375 0 -2.15625 1.140625l0 9.015625l-3.390625 0l0 -18.0l3.390625 0l0 6.703125zm20.0625 11.296875l-3.515625 0l0 -17.0625l3.515625 0l0 17.0625zm6.1523438 -12.6875l0.109375 1.46875q1.359375 -1.703125 3.640625 -1.703125q2.015625 0 3.0 1.1875q0.984375 1.1875 1.0 3.546875l0 8.1875l-3.375 0l0 -8.109375q0 -1.078125 -0.46875 -1.5625q-0.46875 -0.484375 -1.5625 -0.484375q-1.4375 0 -2.140625 1.21875l0 8.9375l-3.390625 0l0 -12.6875l3.1875 0zm11.253906 12.6875l0 -10.203125l-1.890625 0l0 -2.484375l1.890625 0l0 -1.078125q0 -2.125 1.21875 -3.296875q1.21875 -1.1875 3.421875 -1.1875q0.703125 0 1.734375 0.234375l-0.046875 2.625q-0.421875 -0.109375 -1.03125 -0.109375q-1.90625 0 -1.90625 1.796875l0 1.015625l2.515625 0l0 2.484375l-2.515625 0l0 10.203125l-3.390625 0zm14.7890625 -9.5q-0.6875 -0.09375 -1.21875 -0.09375q-1.921875 0 -2.515625 1.296875l0 8.296875l-3.390625 0l0 -12.6875l3.203125 0l0.09375 1.515625q1.015625 -1.75 2.828125 -1.75q0.5625 0 1.046875 0.15625l-0.046875 3.265625zm8.636719 9.5q-0.234375 -0.453125 -0.34375 -1.140625q-1.234375 1.375 -3.203125 1.375q-1.859375 0 -3.09375 -1.078125q-1.21875 -1.078125 -1.21875 -2.71875q0 -2.015625 1.484375 -3.09375q1.5 -1.078125 4.328125 -1.09375l1.5625 0l0 -0.71875q0 -0.890625 -0.453125 -1.40625q-0.453125 -0.53125 -1.421875 -0.53125q-0.859375 0 -1.34375 0.40625q-0.484375 0.40625 -0.484375 1.125l-3.390625 0q0 -1.09375 0.671875 -2.03125q0.6875 -0.9375 1.921875 -1.46875q1.25 -0.546875 2.796875 -0.546875q2.34375 0 3.71875 1.1875q1.375 1.171875 1.375 3.3125l0 5.484375q0.015625 1.8125 0.515625 2.734375l0 0.203125l-3.421875 0zm-2.8125 -2.359375q0.75 0 1.375 -0.328125q0.640625 -0.34375 0.953125 -0.90625l0 -2.171875l-1.265625 0q-2.546875 0 -2.703125 1.75l-0.015625 0.203125q0 0.640625 0.4375 1.046875q0.453125 0.40625 1.21875 0.40625z" fill-rule="nonzero"/><path fill="#000000" fill-opacity="0.0" d="m402.4718 227.55075l102.64566 153.76376" fill-rule="evenodd"/><path stroke="#cccccc" stroke-width="1.0" stroke-linejoin="round" stroke-linecap="butt" d="m402.4718 227.55075l102.64566 153.76376" fill-rule="evenodd"/><path fill="#cccccc" d="m620.4332 381.31454l-28.825989 -29.7323l-233.28421 0l28.82605 29.7323z" fill-rule="evenodd"/><path fill="#858585" d="m358.32956 413.19455l28.82605 -29.73227l233.28421 0l-28.82605 29.73227z" fill-rule="evenodd"/><path fill="#000000" fill-opacity="0.0" d="m624.6982 431.93176l313.88977 0l0 92.50391l-313.88977 0z" fill-rule="evenodd"/><path fill="#858585" d="m644.85443 501.96008l-6.15625 0l-1.171875 3.515625l-3.75 0l6.359375 -17.0625l3.25 0l6.390625 17.0625l-3.734375 0l-1.1875 -3.515625zm-5.21875 -2.84375l4.265625 0l-2.140625 -6.390625l-2.125 6.390625zm14.0703125 -6.328125l0.109375 1.46875q1.359375 -1.703125 3.640625 -1.703125q2.015625 0 3.0 1.1875q0.984375 1.1875 1.0 3.546875l0 8.1875l-3.375 0l0 -8.109375q0 -1.078125 -0.46875 -1.5625q-0.46875 -0.484375 -1.5625 -0.484375q-1.4375 0 -2.140625 1.21875l0 8.9375l-3.390625 0l0 -12.6875l3.1875 0zm9.800781 6.234375q0 -1.890625 0.71875 -3.359375q0.734375 -1.484375 2.09375 -2.296875q1.359375 -0.8125 3.171875 -0.8125q2.5625 0 4.1875 1.578125q1.625 1.5625 1.8125 4.265625l0.015625 0.859375q0 2.921875 -1.625 4.6875q-1.625 1.765625 -4.375 1.765625q-2.734375 0 -4.375 -1.75q-1.625 -1.765625 -1.625 -4.796875l0 -0.140625zm3.375 0.234375q0 1.8125 0.671875 2.765625q0.6875 0.953125 1.953125 0.953125q1.234375 0 1.921875 -0.9375q0.703125 -0.953125 0.703125 -3.015625q0 -1.78125 -0.703125 -2.75q-0.6875 -0.96875 -1.9375 -0.96875q-1.25 0 -1.9375 0.96875q-0.671875 0.96875 -0.671875 2.984375zm14.7734375 -9.578125l0 3.109375l2.171875 0l0 2.484375l-2.171875 0l0 6.328125q0 0.703125 0.265625 1.015625q0.265625 0.296875 1.03125 0.296875q0.5625 0 1.0 -0.078125l0 2.5625q-1.0 0.3125 -2.046875 0.3125q-3.5625 0 -3.640625 -3.59375l0 -6.84375l-1.84375 0l0 -2.484375l1.84375 0l0 -3.109375l3.390625 0zm7.359375 4.5q1.34375 -1.625 3.390625 -1.625q4.125 0 4.171875 4.796875l0 8.125l-3.375 0l0 -8.03125q0 -1.09375 -0.46875 -1.609375q-0.46875 -0.515625 -1.5625 -0.515625q-1.484375 0 -2.15625 1.140625l0 9.015625l-3.390625 0l0 -18.0l3.390625 0l0 6.703125zm15.9609375 11.53125q-2.796875 0 -4.546875 -1.703125q-1.75 -1.71875 -1.75 -4.5625l0 -0.328125q0 -1.921875 0.734375 -3.421875q0.75 -1.5 2.09375 -2.3125q1.359375 -0.828125 3.09375 -0.828125q2.59375 0 4.09375 1.640625q1.5 1.640625 1.5 4.65625l0 1.390625l-8.078125 0q0.15625 1.234375 0.984375 1.984375q0.828125 0.75 2.09375 0.75q1.953125 0 3.0625 -1.421875l1.65625 1.875q-0.75 1.078125 -2.0625 1.6875q-1.296875 0.59375 -2.875 0.59375zm-0.390625 -10.40625q-1.0 0 -1.640625 0.6875q-0.625 0.671875 -0.796875 1.9375l4.71875 0l0 -0.265625q-0.03125 -1.125 -0.625 -1.734375q-0.578125 -0.625 -1.65625 -0.625zm14.644531 0.671875q-0.6875 -0.09375 -1.21875 -0.09375q-1.921875 0 -2.515625 1.296875l0 8.296875l-3.390625 0l0 -12.6875l3.203125 0l0.09375 1.515625q1.015625 -1.75 2.828125 -1.75q0.5625 0 1.046875 0.15625l-0.046875 3.265625zm10.917969 -1.796875q1.34375 -1.625 3.390625 -1.625q4.125 0 4.171875 4.796875l0 8.125l-3.375 0l0 -8.03125q0 -1.09375 -0.46875 -1.609375q-0.46875 -0.515625 -1.5625 -0.515625q-1.484375 0 -2.15625 1.140625l0 9.015625l-3.390625 0l0 -18.0l3.390625 0l0 6.703125zm17.710938 10.0q-1.25 1.53125 -3.46875 1.53125q-2.03125 0 -3.109375 -1.171875q-1.0625 -1.171875 -1.09375 -3.4375l0 -8.3125l3.390625 0l0 8.203125q0 1.96875 1.796875 1.96875q1.734375 0 2.375 -1.1875l0 -8.984375l3.390625 0l0 12.6875l-3.1875 0l-0.09375 -1.296875zm5.3515625 -5.140625q0 -2.921875 1.390625 -4.703125q1.390625 -1.78125 3.734375 -1.78125q2.09375 0 3.25 1.4375l0.140625 -1.203125l3.078125 0l0 12.265625q0 1.671875 -0.765625 2.890625q-0.75 1.234375 -2.125 1.875q-1.375 0.65625 -3.203125 0.65625q-1.40625 0 -2.734375 -0.5625q-1.3125 -0.5625 -2.0 -1.4375l1.5 -2.0625q1.265625 1.421875 3.078125 1.421875q1.34375 0 2.09375 -0.71875q0.75 -0.71875 0.75 -2.046875l0 -0.6875q-1.171875 1.328125 -3.078125 1.328125q-2.28125 0 -3.703125 -1.78125q-1.40625 -1.796875 -1.40625 -4.75l0 -0.140625zm3.390625 0.25q0 1.71875 0.6875 2.703125q0.6875 0.96875 1.890625 0.96875q1.546875 0 2.21875 -1.15625l0 -5.328125q-0.671875 -1.15625 -2.1875 -1.15625q-1.21875 0 -1.921875 1.0q-0.6875 0.984375 -0.6875 2.96875zm16.636719 6.421875q-2.796875 0 -4.546875 -1.703125q-1.75 -1.71875 -1.75 -4.5625l0 -0.328125q0 -1.921875 0.734375 -3.421875q0.75 -1.5 2.09375 -2.3125q1.359375 -0.828125 3.09375 -0.828125q2.59375 0 4.09375 1.640625q1.5 1.640625 1.5 4.65625l0 1.390625l-8.078125 0q0.15625 1.234375 0.984375 1.984375q0.828125 0.75 2.09375 0.75q1.953125 0 3.0625 -1.421875l1.65625 1.875q-0.75 1.078125 -2.0625 1.6875q-1.296875 0.59375 -2.875 0.59375zm-0.390625 -10.40625q-1.0 0 -1.640625 0.6875q-0.625 0.671875 -0.796875 1.9375l4.71875 0l0 -0.265625q-0.03125 -1.125 -0.625 -1.734375q-0.578125 -0.625 -1.65625 -0.625zm24.917969 3.953125q0 2.921875 -1.328125 4.6875q-1.328125 1.765625 -3.59375 1.765625q-1.921875 0 -3.109375 -1.34375l0 5.984375l-3.390625 0l0 -17.5625l3.140625 0l0.125 1.25q1.234375 -1.484375 3.203125 -1.484375q2.34375 0 3.640625 1.734375q1.3125 1.734375 1.3125 4.78125l0 0.1875zm-3.390625 -0.25q0 -1.765625 -0.625 -2.71875q-0.625 -0.96875 -1.828125 -0.96875q-1.59375 0 -2.1875 1.21875l0 5.1875q0.625 1.25 2.21875 1.25q2.421875 0 2.421875 -3.96875zm12.605469 -3.03125q-0.6875 -0.09375 -1.21875 -0.09375q-1.921875 0 -2.515625 1.296875l0 8.296875l-3.390625 0l0 -12.6875l3.203125 0l0.09375 1.515625q1.015625 -1.75 2.828125 -1.75q0.5625 0 1.046875 0.15625l-0.046875 3.265625zm0.69140625 3.046875q0 -1.890625 0.71875 -3.359375q0.734375 -1.484375 2.09375 -2.296875q1.359375 -0.8125 3.171875 -0.8125q2.5625 0 4.1875 1.578125q1.625 1.5625 1.8125 4.265625l0.015625 0.859375q0 2.921875 -1.625 4.6875q-1.625 1.765625 -4.375 1.765625q-2.734375 0 -4.375 -1.75q-1.625 -1.765625 -1.625 -4.796875l0 -0.140625zm3.375 0.234375q0 1.8125 0.671875 2.765625q0.6875 0.953125 1.953125 0.953125q1.234375 0 1.921875 -0.9375q0.703125 -0.953125 0.703125 -3.015625q0 -1.78125 -0.703125 -2.75q-0.6875 -0.96875 -1.9375 -0.96875q-1.25 0 -1.9375 0.96875q-0.671875 0.96875 -0.671875 2.984375zm14.3046875 -6.46875l0 13.375q0 2.109375 -1.125 3.265625q-1.109375 1.171875 -3.203125 1.171875q-0.875 0 -1.671875 -0.203125l0 -2.6875q0.609375 0.109375 1.0625 0.109375q1.53125 0 1.53125 -1.625l0 -13.40625l3.40625 0zm-3.671875 -3.28125q0 -0.75 0.5 -1.234375q0.515625 -0.5 1.390625 -0.5q0.890625 0 1.390625 0.5q0.515625 0.484375 0.515625 1.234375q0 0.78125 -0.53125 1.28125q-0.515625 0.484375 -1.375 0.484375q-0.84375 0 -1.375 -0.484375q-0.515625 -0.5 -0.515625 -1.28125zm12.15625 16.203125q-2.796875 0 -4.546875 -1.703125q-1.75 -1.71875 -1.75 -4.5625l0 -0.328125q0 -1.921875 0.734375 -3.421875q0.75 -1.5 2.09375 -2.3125q1.359375 -0.828125 3.09375 -0.828125q2.59375 0 4.09375 1.640625q1.5 1.640625 1.5 4.65625l0 1.390625l-8.078125 0q0.15625 1.234375 0.984375 1.984375q0.828125 0.75 2.09375 0.75q1.953125 0 3.0625 -1.421875l1.65625 1.875q-0.75 1.078125 -2.0625 1.6875q-1.296875 0.59375 -2.875 0.59375zm-0.390625 -10.40625q-1.0 0 -1.640625 0.6875q-0.625 0.671875 -0.796875 1.9375l4.71875 0l0 -0.265625q-0.03125 -1.125 -0.625 -1.734375q-0.578125 -0.625 -1.65625 -0.625zm12.800781 7.671875q0.9375 0 1.515625 -0.515625q0.59375 -0.515625 0.609375 -1.375l3.1875 0q-0.015625 1.296875 -0.71875 2.375q-0.6875 1.0625 -1.890625 1.65625q-1.1875 0.59375 -2.640625 0.59375q-2.71875 0 -4.296875 -1.71875q-1.5625 -1.734375 -1.5625 -4.78125l0 -0.234375q0 -2.921875 1.546875 -4.671875q1.5625 -1.75 4.28125 -1.75q2.375 0 3.8125 1.359375q1.4375 1.359375 1.46875 3.609375l-3.1875 0q-0.015625 -0.984375 -0.609375 -1.59375q-0.578125 -0.625 -1.546875 -0.625q-1.171875 0 -1.78125 0.859375q-0.609375 0.859375 -0.609375 2.796875l0 0.34375q0 1.96875 0.59375 2.828125q0.609375 0.84375 1.828125 0.84375zm11.296875 -13.296875l0 3.109375l2.171875 0l0 2.484375l-2.171875 0l0 6.328125q0 0.703125 0.265625 1.015625q0.265625 0.296875 1.03125 0.296875q0.5625 0 1.0 -0.078125l0 2.5625q-1.0 0.3125 -2.046875 0.3125q-3.5625 0 -3.640625 -3.59375l0 -6.84375l-1.84375 0l0 -2.484375l1.84375 0l0 -3.109375l3.390625 0z" fill-rule="nonzero"/><path fill="#000000" fill-opacity="0.0" d="m630.1663 224.83644l102.64569 153.76378" fill-rule="evenodd"/><path stroke="#cccccc" stroke-width="1.0" stroke-linejoin="round" stroke-linecap="butt" d="m630.1663 224.83644l102.64569 153.76378" fill-rule="evenodd"/><path fill="#c2c2c2" d="m864.9861 381.16718l-28.82605 -29.7323l-233.28418 0l28.825989 29.7323z" fill-rule="evenodd"/><path fill="#858585" d="m602.8824 413.04718l28.82605 -29.73227l233.28418 0l-28.82605 29.73227z" fill-rule="evenodd"/><path fill="#000000" fill-opacity="0.0" d="m270.29114 174.85301l251.1496 0l0 49.984253l-251.1496 0z" fill-rule="evenodd"/><path fill="#858585" d="m312.91476 203.3774l-6.15625 0l-1.171875 3.515625l-3.75 0l6.359375 -17.0625l3.25 0l6.390625 17.0625l-3.734375 0l-1.1875 -3.515625zm-5.21875 -2.84375l4.265625 0l-2.140625 -6.390625l-2.125 6.390625zm15.0859375 6.359375l-3.390625 0l0 -18.0l3.390625 0l0 18.0zm9.660156 -3.5q0 -0.625 -0.625 -0.984375q-0.609375 -0.359375 -1.96875 -0.640625q-4.515625 -0.953125 -4.515625 -3.84375q0 -1.6875 1.390625 -2.8125q1.40625 -1.140625 3.671875 -1.140625q2.40625 0 3.84375 1.140625q1.453125 1.140625 1.453125 2.953125l-3.375 0q0 -0.71875 -0.46875 -1.1875q-0.46875 -0.484375 -1.46875 -0.484375q-0.859375 0 -1.328125 0.390625q-0.46875 0.375 -0.46875 0.984375q0 0.5625 0.53125 0.90625q0.53125 0.34375 1.796875 0.59375q1.265625 0.25 2.140625 0.5625q2.6875 0.984375 2.6875 3.421875q0 1.734375 -1.5 2.8125q-1.484375 1.0625 -3.84375 1.0625q-1.59375 0 -2.828125 -0.5625q-1.234375 -0.578125 -1.9375 -1.5625q-0.703125 -1.0 -0.703125 -2.140625l3.21875 0q0.046875 0.90625 0.65625 1.390625q0.625 0.46875 1.671875 0.46875q0.96875 0 1.46875 -0.359375q0.5 -0.375 0.5 -0.96875zm4.9492188 -2.953125q0 -1.890625 0.71875 -3.359375q0.734375 -1.484375 2.09375 -2.296875q1.359375 -0.8125 3.171875 -0.8125q2.5625 0 4.1875 1.578125q1.625 1.5625 1.8125 4.265625l0.015625 0.859375q0 2.921875 -1.625 4.6875q-1.625 1.765625 -4.375 1.765625q-2.734375 0 -4.375 -1.75q-1.625 -1.765625 -1.625 -4.796875l0 -0.140625zm3.375 0.234375q0 1.8125 0.671875 2.765625q0.6875 0.953125 1.953125 0.953125q1.234375 0 1.921875 -0.9375q0.703125 -0.953125 0.703125 -3.015625q0 -1.78125 -0.703125 -2.75q-0.6875 -0.96875 -1.9375 -0.96875q-1.25 0 -1.9375 0.96875q-0.671875 0.96875 -0.671875 2.984375zm20.75 -9.578125l0 3.109375l2.171875 0l0 2.484375l-2.171875 0l0 6.328125q0 0.703125 0.265625 1.015625q0.265625 0.296875 1.03125 0.296875q0.5625 0 1.0 -0.078125l0 2.5625q-1.0 0.3125 -2.046875 0.3125q-3.5625 0 -3.640625 -3.59375l0 -6.84375l-1.84375 0l0 -2.484375l1.84375 0l0 -3.109375l3.390625 0zm3.1796875 9.34375q0 -1.890625 0.71875 -3.359375q0.734375 -1.484375 2.09375 -2.296875q1.359375 -0.8125 3.171875 -0.8125q2.5625 0 4.1875 1.578125q1.625 1.5625 1.8125 4.265625l0.015625 0.859375q0 2.921875 -1.625 4.6875q-1.625 1.765625 -4.375 1.765625q-2.734375 0 -4.375 -1.75q-1.625 -1.765625 -1.625 -4.796875l0 -0.140625zm3.375 0.234375q0 1.8125 0.671875 2.765625q0.6875 0.953125 1.953125 0.953125q1.234375 0 1.921875 -0.9375q0.703125 -0.953125 0.703125 -3.015625q0 -1.78125 -0.703125 -2.75q-0.6875 -0.96875 -1.9375 -0.96875q-1.25 0 -1.9375 0.96875q-0.671875 0.96875 -0.671875 2.984375zm13.8359375 -6.46875l0.109375 1.46875q1.359375 -1.703125 3.640625 -1.703125q2.015625 0 3.0 1.1875q0.984375 1.1875 1.0 3.546875l0 8.1875l-3.375 0l0 -8.109375q0 -1.078125 -0.46875 -1.5625q-0.46875 -0.484375 -1.5625 -0.484375q-1.4375 0 -2.140625 1.21875l0 8.9375l-3.390625 0l0 -12.6875l3.1875 0zm17.191406 9.1875q0 -0.625 -0.625 -0.984375q-0.609375 -0.359375 -1.96875 -0.640625q-4.515625 -0.953125 -4.515625 -3.84375q0 -1.6875 1.390625 -2.8125q1.40625 -1.140625 3.671875 -1.140625q2.40625 0 3.84375 1.140625q1.453125 1.140625 1.453125 2.953125l-3.375 0q0 -0.71875 -0.46875 -1.1875q-0.46875 -0.484375 -1.46875 -0.484375q-0.859375 0 -1.328125 0.390625q-0.46875 0.375 -0.46875 0.984375q0 0.5625 0.53125 0.90625q0.53125 0.34375 1.796875 0.59375q1.265625 0.25 2.140625 0.5625q2.6875 0.984375 2.6875 3.421875q0 1.734375 -1.5 2.8125q-1.484375 1.0625 -3.84375 1.0625q-1.59375 0 -2.828125 -0.5625q-1.234375 -0.578125 -1.9375 -1.5625q-0.703125 -1.0 -0.703125 -2.140625l3.21875 0q0.046875 0.90625 0.65625 1.390625q0.625 0.46875 1.671875 0.46875q0.96875 0 1.46875 -0.359375q0.5 -0.375 0.5 -0.96875zm10.925781 -2.953125q0 -1.890625 0.71875 -3.359375q0.734375 -1.484375 2.09375 -2.296875q1.359375 -0.8125 3.171875 -0.8125q2.5625 0 4.1875 1.578125q1.625 1.5625 1.8125 4.265625l0.015625 0.859375q0 2.921875 -1.625 4.6875q-1.625 1.765625 -4.375 1.765625q-2.734375 0 -4.375 -1.75q-1.625 -1.765625 -1.625 -4.796875l0 -0.140625zm3.375 0.234375q0 1.8125 0.671875 2.765625q0.6875 0.953125 1.953125 0.953125q1.234375 0 1.921875 -0.9375q0.703125 -0.953125 0.703125 -3.015625q0 -1.78125 -0.703125 -2.75q-0.6875 -0.96875 -1.9375 -0.96875q-1.25 0 -1.9375 0.96875q-0.671875 0.96875 -0.671875 2.984375zm11.6484375 6.21875l0 -10.203125l-1.890625 0l0 -2.484375l1.890625 0l0 -1.078125q0 -2.125 1.21875 -3.296875q1.21875 -1.1875 3.421875 -1.1875q0.703125 0 1.734375 0.234375l-0.046875 2.625q-0.421875 -0.109375 -1.03125 -0.109375q-1.90625 0 -1.90625 1.796875l0 1.015625l2.515625 0l0 2.484375l-2.515625 0l0 10.203125l-3.390625 0zm18.921875 -2.5q0.9375 0 1.515625 -0.515625q0.59375 -0.515625 0.609375 -1.375l3.1875 0q-0.015625 1.296875 -0.71875 2.375q-0.6875 1.0625 -1.890625 1.65625q-1.1875 0.59375 -2.640625 0.59375q-2.71875 0 -4.296875 -1.71875q-1.5625 -1.734375 -1.5625 -4.78125l0 -0.234375q0 -2.921875 1.546875 -4.671875q1.5625 -1.75 4.28125 -1.75q2.375 0 3.8125 1.359375q1.4375 1.359375 1.46875 3.609375l-3.1875 0q-0.015625 -0.984375 -0.609375 -1.59375q-0.578125 -0.625 -1.546875 -0.625q-1.171875 0 -1.78125 0.859375q-0.609375 0.859375 -0.609375 2.796875l0 0.34375q0 1.96875 0.59375 2.828125q0.609375 0.84375 1.828125 0.84375zm6.71875 -3.953125q0 -1.890625 0.71875 -3.359375q0.734375 -1.484375 2.09375 -2.296875q1.359375 -0.8125 3.171875 -0.8125q2.5625 0 4.1875 1.578125q1.625 1.5625 1.8125 4.265625l0.015625 0.859375q0 2.921875 -1.625 4.6875q-1.625 1.765625 -4.375 1.765625q-2.734375 0 -4.375 -1.75q-1.625 -1.765625 -1.625 -4.796875l0 -0.140625zm3.375 0.234375q0 1.8125 0.671875 2.765625q0.6875 0.953125 1.953125 0.953125q1.234375 0 1.921875 -0.9375q0.703125 -0.953125 0.703125 -3.015625q0 -1.78125 -0.703125 -2.75q-0.6875 -0.96875 -1.9375 -0.96875q-1.25 0 -1.9375 0.96875q-0.671875 0.96875 -0.671875 2.984375zm10.1953125 -0.21875q0 -2.96875 1.328125 -4.71875q1.328125 -1.765625 3.640625 -1.765625q1.84375 0 3.046875 1.390625l0 -6.46875l3.40625 0l0 18.0l-3.0625 0l-0.15625 -1.34375q-1.265625 1.578125 -3.265625 1.578125q-2.234375 0 -3.59375 -1.765625q-1.34375 -1.765625 -1.34375 -4.90625zm3.375 0.25q0 1.78125 0.625 2.734375q0.625 0.9375 1.8125 0.9375q1.5625 0 2.203125 -1.3125l0 -5.015625q-0.625 -1.3125 -2.1875 -1.3125q-2.453125 0 -2.453125 3.96875zm16.507812 6.421875q-2.796875 0 -4.546875 -1.703125q-1.75 -1.71875 -1.75 -4.5625l0 -0.328125q0 -1.921875 0.734375 -3.421875q0.75 -1.5 2.09375 -2.3125q1.359375 -0.828125 3.09375 -0.828125q2.59375 0 4.09375 1.640625q1.5 1.640625 1.5 4.65625l0 1.390625l-8.078125 0q0.15625 1.234375 0.984375 1.984375q0.828125 0.75 2.09375 0.75q1.953125 0 3.0625 -1.421875l1.65625 1.875q-0.75 1.078125 -2.0625 1.6875q-1.296875 0.59375 -2.875 0.59375zm-0.390625 -10.40625q-1.0 0 -1.640625 0.6875q-0.625 0.671875 -0.796875 1.9375l4.71875 0l0 -0.265625q-0.03125 -1.125 -0.625 -1.734375q-0.578125 -0.625 -1.65625 -0.625z" fill-rule="nonzero"/><path fill="#000000" fill-opacity="0.0" d="m577.06885 174.85301l112.37793 0l0 49.984253l-112.37793 0z" fill-rule="evenodd"/><path fill="#858585" d="m618.5703 198.7524q0 2.515625 -0.890625 4.421875q-0.890625 1.890625 -2.5625 2.921875q-1.65625 1.03125 -3.796875 1.03125q-2.125 0 -3.796875 -1.015625q-1.65625 -1.03125 -2.578125 -2.921875q-0.90625 -1.890625 -0.90625 -4.34375l0 -0.84375q0 -2.53125 0.90625 -4.4375q0.90625 -1.921875 2.5625 -2.9375q1.65625 -1.03125 3.78125 -1.03125q2.140625 0 3.796875 1.03125q1.65625 1.015625 2.5625 2.9375q0.921875 1.90625 0.921875 4.421875l0 0.765625zm-3.5625 -0.78125q0 -2.6875 -0.96875 -4.078125q-0.953125 -1.390625 -2.734375 -1.390625q-1.78125 0 -2.75 1.375q-0.953125 1.375 -0.953125 4.03125l0 0.84375q0 2.609375 0.953125 4.046875q0.96875 1.4375 2.765625 1.4375q1.765625 0 2.71875 -1.375q0.953125 -1.390625 0.96875 -4.0625l0 -0.828125zm10.7109375 -8.140625l4.375 12.375l4.359375 -12.375l4.625 0l0 17.0625l-3.53125 0l0 -4.671875l0.34375 -8.046875l-4.59375 12.71875l-2.421875 0l-4.59375 -12.703125l0.359375 8.03125l0 4.671875l-3.515625 0l0 -17.0625l4.59375 0zm29.929688 14.90625q-0.953125 1.140625 -2.6875 1.765625q-1.734375 0.625 -3.84375 0.625q-2.21875 0 -3.890625 -0.96875q-1.671875 -0.96875 -2.578125 -2.796875q-0.90625 -1.84375 -0.921875 -4.328125l0 -1.171875q0 -2.546875 0.859375 -4.40625q0.859375 -1.875 2.484375 -2.859375q1.625 -1.0 3.796875 -1.0q3.03125 0 4.734375 1.453125q1.71875 1.4375 2.046875 4.203125l-3.421875 0q-0.234375 -1.46875 -1.046875 -2.140625q-0.796875 -0.6875 -2.203125 -0.6875q-1.796875 0 -2.734375 1.359375q-0.9375 1.34375 -0.953125 4.0l0 1.09375q0 2.6875 1.015625 4.0625q1.03125 1.359375 3.0 1.359375q1.984375 0 2.828125 -0.84375l0 -2.9375l-3.203125 0l0 -2.59375l6.71875 0l0 6.8125zm6.0664062 -3.078125l-2.8125 0l-0.40625 -11.828125l3.609375 0l-0.390625 11.828125zm-1.40625 1.84375q0.859375 0 1.375 0.515625q0.515625 0.5 0.515625 1.28125q0 0.765625 -0.515625 1.28125q-0.515625 0.5 -1.375 0.5q-0.84375 0 -1.375 -0.5q-0.515625 -0.515625 -0.515625 -1.28125q0 -0.78125 0.515625 -1.28125q0.53125 -0.515625 1.375 -0.515625z" fill-rule="nonzero"/></g></svg>